<?xml version="1.0" encoding="UTF-8"?>
<svg id="Livello_2" data-name="Livello 2" xmlns="http://www.w3.org/2000/svg" viewBox="0 0 113.98 110.84">
  <defs>
    <style>
      .cls-1 {
        fill: #fff;
      }

      .cls-2 {
        opacity: .69;
      }
    </style>
  </defs>
  <g id="Livello_1-2" data-name="Livello 1">
    <g class="cls-2">
      <g>
        <path class="cls-1" d="M26.46,42.95c1.09,2.8,2.1,5.28,3.04,7.43,1.13,2.57,2.01,4.71,2.64,6.42.63,1.7,1.36,3.39,2.2,5.05,2.23-4.39,4.81-10.69,7.75-18.9l6.42.02c.23.04.34.16.34.36s-.13.31-.39.34c-1.14.12-1.9.39-2.28.82-.38.43-.62,1.15-.71,2.16-.09,1.01-.18,2.89-.27,5.64-.09,2.75-.13,5.04-.13,6.87,0,3.52.02,5.57.06,6.15.04.58.23,1.05.55,1.39.32.35.95.6,1.89.75.27.05.4.17.4.36s-.17.29-.5.29l-6.28-.02h-1.65c-.37,0-.55-.1-.55-.31,0-.18.12-.29.37-.33.9-.14,1.5-.34,1.8-.6.3-.26.52-.71.66-1.37.15-.66.22-2.3.22-4.93l.31-9.22.16-4.55c0-.35-.04-.52-.13-.52-.13,0-.24.1-.32.31l-3.2,7.51c-2.05,4.8-3.3,7.88-3.76,9.22l-1,2.9c-.31.88-.5,1.37-.57,1.45-.06.08-.14.12-.23.12-.13,0-.24-.17-.32-.5-.19-.79-1.19-3.32-2.99-7.57-.94-2.39-2.06-5.13-3.37-8.2-1.31-3.07-2.02-4.68-2.12-4.81s-.19-.2-.24-.2c-.11,0-.16.16-.16.48l-.18,11.63-.05,3.84c0,2.03.23,3.37.7,3.99.47.63,1.14.94,2.01.94.56,0,.84.14.84.42,0,.2-.13.31-.4.31l-.34-.02-1.05.02-2.28-.02c-.99,0-2.26.06-3.82.19-.13-.1-.19-.2-.19-.31,0-.26.19-.39.56-.4,1.08-.04,1.87-.46,2.37-1.27.51-.81.76-2.61.76-5.42l-.03-3.38.23-8.57c0-2-.25-3.36-.74-4.1-.5-.74-1.22-1.17-2.18-1.32-.41-.06-.61-.19-.61-.39,0-.22.15-.34.45-.34.16,0,.35,0,.58.02l5.71.15Z"/>
        <path class="cls-1" d="M88.19,51.11c-.17,0-.34-.2-.52-.61-1.05-2.31-2.43-4.09-4.15-5.34-1.72-1.25-3.56-1.88-5.5-1.88-1.6,0-3.15.48-4.65,1.45-1.5.97-2.72,2.46-3.67,4.47-.95,2.02-1.42,4.16-1.42,6.44,0,3.25.97,6.06,2.92,8.43,1.94,2.37,4.38,3.55,7.29,3.55,1.04,0,1.92-.16,2.65-.48.73-.32,1.42-.78,2.06-1.38s1.04-1.05,1.17-1.34c.13-.29.2-1.07.2-2.32,0-2.1-.28-3.48-.84-4.15-.56-.67-1.45-1-2.68-1l-.6.02c-.37,0-.56-.12-.56-.36,0-.29.2-.44.61-.44l1.02.04,4.34-.06,5.32-.12c.29,0,.44.13.44.4s-.17.42-.5.44c-.79.08-1.44.25-1.94.52-.5.27-.81.58-.92.92-.12.35-.17.93-.17,1.75,0,2.99-.07,4.64-.21,4.93-.14.29-1.33.97-3.57,2.02-2.24,1.05-4.49,1.57-6.76,1.57-3.75,0-6.96-1.2-9.62-3.61-2.66-2.41-3.99-5.45-3.99-9.14,0-2.53.63-4.83,1.89-6.88,1.26-2.05,2.98-3.65,5.17-4.78,2.19-1.13,4.41-1.7,6.68-1.7,2.12,0,4.41.61,6.87,1.82.69.35,1.18.52,1.46.52.4,0,.7-.17.92-.52.19-.29.36-.44.52-.44.29,0,.47.37.52,1.11.08,1.16.26,2.94.56,5.34.03.13.04.24.04.35,0,.31-.13.46-.4.46Z"/>
        <path class="cls-1" d="M56.24,28.59s-.16,57.33,0,57.33"/>
        <g>
          <g>
            <path class="cls-1" d="M18.02,89.57c-.18.46-.34.88-.47,1.25-.15.44-.28.8-.4,1.08-.12.28-.22.57-.3.87.81-.18,1.89-.52,3.24-1.03l.85.9s.03.06,0,.09c-.02.02-.05.02-.09-.02-.16-.15-.3-.22-.4-.23-.1,0-.22.04-.35.14-.13.1-.36.3-.69.59-.33.29-.61.54-.82.75-.41.39-.65.62-.71.69-.06.07-.09.15-.09.23,0,.08.06.2.16.35.03.04.03.08.01.1-.02.02-.06,0-.1-.04l-.83-.88-.22-.23c-.05-.05-.06-.09-.04-.11.02-.02.05-.02.09.02.14.11.24.17.31.18.07.01.15,0,.25-.06.1-.05.3-.23.61-.52l1.12-.99.55-.48s.05-.06.04-.08c-.02-.02-.04-.02-.08-.01l-1.3.39c-.83.25-1.36.42-1.58.5l-.47.18c-.14.05-.23.08-.24.08-.02,0-.03,0-.04-.02-.02-.02-.01-.05.01-.1.07-.12.23-.54.49-1.26.16-.4.33-.86.51-1.38s.28-.8.28-.83,0-.05,0-.06c-.01-.02-.04,0-.08.03l-1.38,1.27-.46.42c-.24.23-.36.41-.37.54-.01.13.04.26.16.38.07.08.09.13.06.16-.02.02-.05.02-.09-.02l-.04-.05-.14-.14-.3-.32c-.13-.14-.31-.31-.53-.51,0-.03,0-.05.01-.06.03-.03.07-.02.12.03.15.15.3.21.46.19s.41-.19.73-.5l.39-.38,1.03-.92c.23-.22.36-.41.38-.56.02-.15-.02-.3-.13-.45-.05-.06-.06-.11-.04-.13.03-.02.06-.02.1.03.02.02.05.05.07.08l.74.81Z"/>
            <path class="cls-1" d="M24.67,95.63l.11.09c-.11.52-.36,1.35-.74,2.5-.24.74-.38,1.21-.4,1.4-.03.19.04.36.2.51.05.05.06.09.04.12-.02.02-.04.02-.07,0l-.03-.03c-.14-.13-.33-.28-.56-.47-.36-.28-.59-.45-.7-.52-.05-.04-.06-.07-.04-.1.02-.02.05-.02.09,0,.15.1.26.15.34.15s.15-.03.21-.1c.05-.07.14-.28.26-.64l.18-.53c-.09-.07-.47-.36-1.15-.87-.52.32-.83.54-.92.66-.08.1-.09.21-.05.32.05.11.11.2.19.27.06.05.07.09.05.13-.01.01-.03.02-.06.01-.25-.21-.4-.34-.46-.38-.27-.21-.46-.35-.56-.42-.05-.04-.07-.08-.04-.11.02-.03.06-.02.11,0,.21.12.45.11.73-.05.28-.15.76-.44,1.43-.88.62-.39,1.23-.75,1.85-1.07ZM24.16,96.09c-.39.19-.92.5-1.58.94.17.12.3.21.37.27l.68.55c.07-.22.16-.51.27-.87.13-.44.21-.73.26-.88Z"/>
            <path class="cls-1" d="M31.41,101.73s-.03-.06-.02-.13c.04-.41,0-.77-.14-1.08s-.34-.55-.61-.71c-.22-.13-.48-.19-.77-.18-.29.01-.58.12-.88.33-.3.2-.54.47-.72.78-.26.45-.36.92-.28,1.41s.32.85.73,1.09c.15.08.28.13.41.15.13.01.26,0,.4-.02s.23-.06.27-.09c.04-.03.11-.13.22-.31.17-.29.24-.51.22-.65-.02-.14-.12-.26-.29-.36l-.08-.05c-.05-.03-.07-.06-.05-.1.02-.04.06-.05.12-.01l.14.09.61.35.75.42s.05.05.03.09-.06.04-.11.02c-.12-.05-.22-.08-.31-.09-.09,0-.16.01-.2.05-.04.04-.1.12-.17.23-.24.42-.39.64-.43.67s-.26.03-.66,0c-.4-.04-.75-.15-1.07-.33-.52-.31-.87-.73-1.05-1.29-.18-.55-.11-1.09.19-1.6.21-.35.48-.62.82-.81.34-.18.71-.27,1.11-.25.4.02.75.12,1.07.31.3.17.57.44.81.81.07.1.12.17.16.19.06.03.11.03.17,0,.05-.03.09-.03.11-.02.04.02.03.09-.02.2-.08.17-.2.43-.36.79,0,.02-.01.04-.02.05-.03.04-.06.05-.09.03Z"/>
            <path class="cls-1" d="M38.38,104.88s-.04-.05-.04-.12c-.02-.41-.12-.76-.3-1.05-.18-.29-.42-.5-.71-.61-.24-.1-.5-.12-.78-.06-.28.05-.56.2-.82.45s-.47.54-.6.88c-.2.49-.22.97-.07,1.44.15.47.44.8.88.97.16.06.3.09.43.09.13,0,.26-.03.39-.08.13-.05.22-.09.26-.13.04-.04.09-.15.17-.34.13-.31.17-.54.13-.67-.04-.13-.16-.24-.34-.31l-.09-.03c-.06-.02-.08-.05-.06-.09.02-.04.06-.05.12-.03l.15.07.65.25.8.3s.06.05.04.09c-.02.04-.05.05-.1.04-.12-.04-.23-.05-.32-.04-.09.01-.16.04-.19.08-.04.04-.08.13-.13.25-.18.45-.29.69-.33.73-.04.04-.26.06-.66.09s-.77-.04-1.11-.17c-.56-.23-.97-.6-1.22-1.12-.25-.52-.27-1.06-.04-1.61.15-.38.39-.68.7-.92.31-.23.67-.36,1.06-.4.4-.04.76.01,1.1.15.32.13.62.36.92.69.08.09.14.15.19.17.06.02.12.02.17-.02.05-.03.08-.04.1-.03.04.02.05.08.01.2-.06.18-.14.46-.24.83,0,.02,0,.04-.01.05-.02.05-.05.06-.09.04Z"/>
            <path class="cls-1" d="M42.41,104.77l.54.16.84.21c.1.03.14.06.13.1,0,.03-.04.04-.1.04-.23-.03-.39.01-.48.13-.09.12-.25.6-.48,1.44-.08.31-.17.66-.26,1.05-.09.39-.13.63-.13.71,0,.08.02.15.06.22s.14.12.28.19c.05.02.07.05.06.08,0,.04-.04.05-.08.04l-.74-.21-.64-.16c-.07-.02-.1-.05-.09-.09.01-.04.04-.06.1-.04.19.05.31.01.38-.1.06-.11.18-.49.36-1.13.17-.62.3-1.13.39-1.52s.12-.63.09-.73c-.03-.1-.12-.18-.26-.24-.05-.02-.07-.06-.06-.09,0-.04.04-.05.08-.04Z"/>
            <path class="cls-1" d="M46.78,107.92c.04-.28.17-.57.39-.87.22-.31.5-.54.86-.71s.73-.22,1.14-.16c.57.08,1,.36,1.31.81s.43.95.35,1.47c-.08.55-.36,1.02-.83,1.39-.47.38-1,.52-1.57.44-.55-.08-.98-.34-1.3-.78-.32-.44-.43-.97-.34-1.59ZM47.48,107.93c-.05.33-.05.68,0,1.05.05.37.17.64.37.84.19.19.42.3.67.34.4.06.75-.09,1.05-.44.3-.36.49-.79.56-1.31.07-.5.02-.96-.18-1.37-.19-.41-.49-.65-.88-.71-.3-.04-.57.02-.8.19-.23.17-.41.39-.55.66s-.22.52-.25.76Z"/>
            <path class="cls-1" d="M60.83,110.71c-.11.01-.21.02-.31.03l-1.36.06c-.21.01-.35.02-.42.03-.07,0-.1-.01-.1-.05,0-.02.01-.04.05-.07.71-.59,1.19-1.08,1.42-1.47.24-.39.35-.74.33-1.05-.01-.18-.06-.33-.16-.46s-.23-.18-.42-.17c-.3.02-.54.16-.72.43-.18.27-.26.55-.25.83,0,.13.04.22.09.28.05.06.13.09.23.08.08,0,.16-.04.26-.11.1-.07.18-.2.23-.4.02-.05.04-.08.06-.08.04,0,.06.02.07.06,0,.04-.02.12-.08.23s-.14.23-.26.32c-.12.1-.24.15-.36.16-.15,0-.28-.04-.4-.15-.12-.11-.18-.24-.19-.39-.02-.29.13-.59.45-.92.31-.32.65-.49,1.01-.51.24-.01.45.04.63.17.18.13.28.33.3.6.01.26-.06.51-.21.75s-.48.57-.97,1c-.26.23-.44.39-.53.47l.93-.05c.27-.02.45-.04.53-.08s.17-.13.26-.28c.05-.08.09-.12.11-.12.03,0,.05.01.05.05l-.3.81Z"/>
            <path class="cls-1" d="M65.27,107.29c-.01.49-.02.82,0,1,.1-.11.2-.2.31-.27.11-.07.23-.11.35-.13.25-.04.48,0,.7.13.22.13.35.33.4.61.06.34-.04.67-.3.99-.26.32-.56.51-.92.57-.26.04-.49.02-.69-.08-.2-.1-.32-.24-.35-.43-.02-.1,0-.17.05-.23.05-.06.11-.09.18-.1.06,0,.11,0,.17.03.06.03.09.08.1.13,0,.03,0,.08,0,.14,0,.07,0,.12,0,.15.01.08.06.15.15.21s.21.08.38.05c.3-.05.51-.21.64-.49s.16-.6.1-.97c-.04-.22-.11-.38-.21-.48-.1-.1-.24-.13-.41-.1-.2.03-.36.13-.48.3-.12.17-.18.32-.18.47,0,.09-.01.13-.05.14-.03,0-.06-.01-.06-.05,0-.01,0-.32-.01-.93v-.69c-.01-.19-.01-.31,0-.38.37,0,.59,0,.67-.02.28-.05.49-.21.63-.48.03-.05.05-.08.08-.09.03,0,.05,0,.05.03.02.15-.05.33-.22.54-.17.21-.42.34-.75.4-.08.01-.18.02-.32.03Z"/>
            <path class="cls-1" d="M77.24,107c-.1.05-.19.09-.28.12l-1.28.46c-.2.07-.33.13-.39.16-.06.02-.1.02-.11-.02,0-.02,0-.04.02-.08.51-.77.82-1.38.93-1.82.11-.44.11-.81,0-1.11-.06-.17-.16-.3-.29-.39-.13-.09-.28-.11-.45-.04-.28.1-.47.31-.56.63-.09.31-.09.6,0,.86.04.12.1.2.17.24.07.04.15.05.24.01.07-.03.14-.09.22-.18.07-.1.11-.25.11-.45,0-.06.01-.09.04-.1.04-.01.07,0,.08.04.01.04.01.12,0,.25-.01.13-.07.26-.15.39-.09.13-.18.21-.3.25-.14.05-.28.04-.42-.03-.14-.07-.24-.17-.3-.32-.1-.27-.05-.6.16-1.01.2-.4.47-.66.81-.79.22-.08.44-.09.66-.02.21.07.37.23.46.48.09.24.1.5.02.78-.08.28-.29.69-.64,1.24-.18.29-.3.5-.36.61l.88-.33c.26-.09.42-.17.49-.23.07-.06.13-.17.17-.34.02-.09.05-.14.07-.14.03-.01.05,0,.06.03l-.05.86Z"/>
            <path class="cls-1" d="M80.59,101.82c.33-.17.7-.16,1.1.02.4.18.7.47.9.87.2.4.26.83.17,1.26-.09.44-.31.75-.67.93-.35.17-.72.17-1.1,0-.39-.18-.69-.47-.89-.89-.14-.28-.21-.57-.21-.86,0-.29.06-.56.18-.8s.29-.41.53-.53ZM80.64,101.93c-.25.12-.38.35-.4.69s.09.72.31,1.17c.22.43.47.73.75.91.28.17.53.2.75.09.23-.12.37-.32.41-.6.04-.29-.08-.71-.36-1.27-.23-.46-.48-.77-.73-.93-.26-.15-.5-.17-.73-.06Z"/>
            <path class="cls-1" d="M88.21,101.24c-.09.07-.17.13-.25.18l-1.15.73c-.18.12-.29.2-.35.24-.06.04-.09.04-.12,0-.01-.02,0-.04,0-.08.32-.86.49-1.53.51-1.98.01-.46-.07-.82-.24-1.08-.1-.15-.22-.26-.37-.32-.15-.06-.3-.04-.45.06-.25.16-.39.41-.41.74-.02.33.05.61.2.84.07.11.14.17.22.2s.16.01.24-.04c.06-.04.12-.12.17-.23s.05-.26,0-.47c-.01-.05,0-.09.01-.1.03-.02.06-.02.09.02.02.03.04.11.05.24.01.13,0,.27-.06.41-.06.14-.13.25-.23.31-.12.08-.26.1-.42.07-.16-.04-.28-.12-.36-.24-.16-.24-.18-.58-.07-1.02.11-.44.32-.75.62-.95.2-.13.41-.19.64-.16s.41.14.56.37c.14.22.2.47.19.75-.02.29-.13.74-.35,1.35-.11.33-.19.55-.22.67l.78-.51c.23-.15.37-.26.42-.34.05-.07.08-.2.09-.37,0-.09.02-.14.04-.16.03-.02.05-.01.07.01l.14.85Z"/>
            <path class="cls-1" d="M90.35,96.06c.23.43.4.72.5.87.03-.15.07-.28.14-.39.06-.11.14-.21.24-.29.19-.16.42-.24.67-.23.26,0,.47.11.65.33.22.27.3.6.23,1-.06.4-.24.72-.52.95-.2.17-.41.26-.63.27-.22.02-.39-.05-.52-.2-.06-.08-.09-.15-.07-.22.01-.07.05-.13.1-.18.04-.04.1-.06.16-.06.06,0,.11.02.15.07.02.03.04.07.07.12.03.06.05.11.07.13.05.06.13.1.23.11.11.01.22-.03.35-.14.23-.19.34-.44.31-.74-.03-.3-.16-.6-.4-.89-.14-.18-.29-.28-.42-.31-.14-.03-.27,0-.41.11-.16.13-.25.3-.27.5-.02.21,0,.37.08.49.05.07.06.12.03.15-.03.02-.05.02-.08-.01,0,0-.16-.28-.47-.8l-.35-.6c-.1-.16-.16-.27-.18-.33.32-.19.51-.3.57-.35.22-.18.32-.42.31-.73,0-.06,0-.1.03-.11.02-.02.04-.02.06,0,.09.11.12.31.07.58-.05.27-.2.51-.45.72-.06.05-.15.11-.26.19Z"/>
          </g>
          <g>
            <g>
              <path class="cls-1" d="M14.64,19.27c.48.14.91.26,1.29.36.45.11.83.22,1.11.31.29.09.58.17.89.23-.25-.79-.68-1.84-1.29-3.14l.82-.92s.06-.03.09-.01c.02.02.02.05,0,.09-.13.18-.2.31-.19.42,0,.1.06.21.17.33.11.12.33.34.65.64.32.31.59.56.81.76.42.38.67.59.75.65.08.06.16.08.24.07s.19-.07.33-.19c.04-.03.07-.04.1-.02s.01.05-.03.1l-.8.9-.21.24c-.05.05-.08.07-.11.05-.02-.02-.02-.05,0-.09.1-.14.15-.25.16-.32,0-.07-.02-.15-.08-.24-.06-.09-.25-.28-.57-.56l-1.07-1.03-.53-.51s-.07-.05-.08-.04c-.02.02-.02.04,0,.08l.5,1.26c.32.81.53,1.32.63,1.53l.22.45c.07.14.1.22.1.24,0,.02,0,.03-.01.05-.02.02-.05.02-.1,0-.12-.06-.55-.18-1.3-.38-.41-.12-.88-.25-1.42-.4s-.82-.21-.85-.21c-.03,0-.05,0-.05.01-.01.02,0,.04.04.07l1.38,1.27.46.42c.25.22.44.33.57.33s.26-.06.37-.19c.07-.08.12-.11.16-.08.02.02.02.05-.01.09l-.05.05-.13.15-.29.32c-.13.14-.28.33-.46.57-.03,0-.05,0-.06,0-.03-.03-.02-.07.02-.12.13-.16.18-.32.15-.48-.03-.16-.22-.39-.56-.69l-.41-.36-1.01-.95c-.24-.21-.44-.33-.59-.33-.15,0-.3.05-.44.17-.06.05-.1.07-.13.05-.03-.02-.02-.06.02-.1.02-.02.05-.05.08-.08l.75-.8Z"/>
              <path class="cls-1" d="M21.32,12.52l.11-.09c.48.22,1.24.63,2.29,1.25.67.4,1.1.63,1.28.69.18.07.36.04.54-.09.06-.04.1-.04.12-.01.02.02.01.04-.01.07l-.04.03c-.16.11-.35.26-.57.45-.35.29-.56.48-.65.57-.05.04-.09.05-.11.02-.02-.02-.01-.05.02-.08.12-.13.2-.23.22-.3.02-.08,0-.15-.05-.22-.06-.07-.25-.2-.57-.39l-.48-.29c-.08.07-.45.38-1.1.94.2.58.35.92.45,1.04.08.1.18.14.3.11.12-.02.22-.06.31-.12.06-.04.11-.05.13-.02.01.01.01.03,0,.06-.26.2-.42.32-.47.37-.27.22-.44.37-.53.46-.05.04-.09.05-.11.02-.02-.03-.01-.06.03-.1.16-.18.2-.42.11-.72s-.27-.83-.55-1.58c-.25-.69-.47-1.36-.65-2.03ZM21.66,13.12c.1.43.3,1.01.58,1.75.16-.14.27-.25.34-.31l.68-.55c-.2-.12-.46-.27-.8-.45-.4-.22-.67-.36-.81-.44Z"/>
              <path class="cls-1" d="M28.84,9.63c.31-.05.55-.04.71.01.17.06.35.19.54.4.26.28.47.44.64.48.17.04.35.01.52-.09.05-.03.08-.02.1,0,.02.03,0,.06-.05.1-.49.31-.8.48-.92.51-.12.03-.31-.1-.57-.39-.25-.29-.44-.49-.58-.6-.14-.11-.3-.17-.46-.18s-.36.06-.6.22c-.09.06-.19.13-.29.22.06.12.13.23.2.35.28.45.47.74.57.86.1.12.19.2.29.22.1.02.22-.01.37-.1.06-.04.11-.04.12-.01.02.03,0,.08-.08.12l-1.3.82c-.08.05-.12.05-.15.02-.02-.03,0-.06.06-.1.13-.08.21-.16.24-.23.03-.07.03-.16,0-.26-.02-.1-.11-.27-.24-.49l-.34-.53-.51-.82c-.26-.42-.44-.69-.55-.81s-.19-.19-.27-.21c-.08-.02-.21.02-.4.1-.04.02-.07.01-.08-.01-.02-.03,0-.06.08-.11l1.53-1.01c.43-.27.79-.38,1.09-.34.3.04.52.18.67.42.09.15.14.31.14.49,0,.17-.04.32-.11.44-.07.12-.2.29-.39.51ZM27.8,10.19c.33-.22.57-.4.71-.55.14-.15.23-.32.26-.53.03-.21-.01-.41-.13-.6-.12-.2-.3-.33-.52-.39s-.48,0-.77.18c-.16.1-.32.23-.48.39.28.49.51.88.69,1.17.06.1.14.21.24.34Z"/>
              <path class="cls-1" d="M34.88,4.51c.06-.14.09-.23.09-.27,0-.05.01-.09.05-.11.04-.02.07,0,.11.07l.52.95c.03.06.04.09.04.11,0,.01,0,.03-.03.04-.03.01-.08-.01-.15-.08-.26-.24-.55-.41-.86-.49-.31-.09-.6-.07-.86.05-.23.11-.4.28-.53.51s-.17.51-.15.84c.02.32.1.64.25.95.25.53.6.9,1.04,1.09.45.2.85.21,1.21.04.25-.11.43-.3.57-.55.13-.25.21-.5.22-.76,0-.07.02-.11.05-.12.04-.02.07,0,.09.04.03.05,0,.21-.05.46s-.17.49-.35.71c-.18.22-.4.39-.67.52-.31.15-.65.2-1,.18-.36-.03-.68-.14-.98-.35-.29-.2-.53-.5-.71-.87-.17-.37-.25-.74-.23-1.12.02-.37.14-.71.35-1.01s.48-.52.78-.67c.17-.08.35-.13.54-.16.2-.03.41-.03.64-.01Z"/>
              <path class="cls-1" d="M39.02,4.74c-.08-.27-.09-.58-.03-.95.06-.37.22-.71.46-1.01.25-.3.57-.52.96-.64.55-.17,1.06-.12,1.54.16.48.28.8.67.95,1.17.17.53.12,1.07-.14,1.62-.26.55-.67.91-1.23,1.08-.53.17-1.03.12-1.51-.14-.48-.26-.81-.69-1-1.29ZM39.65,4.43c.1.32.25.64.46.94.2.31.44.51.69.59.26.09.51.09.75.02.39-.12.64-.41.76-.86.12-.45.1-.92-.06-1.42-.15-.48-.4-.87-.75-1.16-.35-.29-.72-.37-1.1-.26-.29.09-.5.26-.63.52-.13.25-.2.53-.21.83,0,.3.03.56.1.79Z"/>
              <path class="cls-1" d="M53.15,2.89c.22.34.38.55.49.62.11.07.21.1.31.09.14-.01.26-.08.38-.2.01-.02.02-.02.04-.02.04,0,.06.02.07.06,0,.04-.08.13-.26.26-.18.13-.36.21-.54.22-.11,0-.22-.02-.32-.07-.1-.06-.26-.24-.46-.53-.42.49-.85.75-1.27.78-.29.02-.54-.04-.76-.2-.22-.16-.33-.37-.36-.64-.02-.25.04-.49.18-.71.15-.22.4-.47.77-.75-.4-.34-.62-.64-.64-.92-.02-.23.05-.43.2-.59.15-.16.34-.25.56-.27.19-.02.37.03.53.14s.25.26.27.46c.02.27-.14.57-.48.92.52.36.93.77,1.22,1.24.23-.43.34-.77.32-.99,0-.1-.05-.18-.12-.24s-.16-.08-.28-.07c-.1,0-.15,0-.16-.04,0-.04.02-.07.06-.07l.55-.03.73-.07c.06,0,.09.01.09.05,0,.04-.03.06-.11.06-.15.02-.27.08-.37.2-.1.11-.2.33-.32.66-.11.31-.22.54-.31.67ZM51.52,1.88c-.2.16-.35.32-.46.48-.11.16-.15.36-.13.58.02.26.12.46.3.62.18.16.38.23.6.21.32-.03.63-.22.94-.59-.2-.29-.36-.51-.51-.67-.14-.15-.39-.37-.74-.64ZM51.73,1.43c.24-.26.35-.51.33-.75-.01-.15-.08-.28-.19-.38s-.24-.15-.38-.14c-.13.01-.23.07-.3.17-.07.1-.1.22-.09.34.02.24.23.5.62.76Z"/>
              <path class="cls-1" d="M65.69,1.74s-.05-.04-.07-.11c-.12-.39-.3-.71-.55-.94-.25-.24-.53-.38-.84-.42-.26-.03-.51,0-.77.13-.26.12-.49.33-.69.64-.2.3-.32.64-.37,1-.07.52.02.99.28,1.41s.62.66,1.09.73c.17.02.31.02.43-.02.12-.04.24-.09.36-.18.12-.08.19-.15.22-.19.03-.04.06-.17.08-.37.05-.34.03-.56-.04-.68-.07-.12-.21-.19-.41-.22h-.1c-.06-.02-.09-.04-.08-.08,0-.05.04-.07.11-.06l.16.03.7.09.85.1s.07.03.06.07c0,.04-.04.06-.09.06-.13,0-.24,0-.32.04-.09.03-.14.07-.17.13s-.05.14-.07.28c-.07.48-.11.74-.14.78-.03.04-.23.13-.62.24-.38.12-.75.15-1.12.1-.6-.08-1.09-.34-1.46-.79s-.52-.96-.44-1.55c.06-.41.21-.76.45-1.06s.56-.52.93-.65c.37-.13.74-.18,1.11-.13.34.05.69.19,1.06.44.1.07.18.11.22.11.06,0,.12-.01.16-.06.04-.04.07-.06.09-.06.05,0,.07.07.06.19-.01.19-.02.48-.03.87,0,.02,0,.04,0,.06,0,.05-.03.07-.07.07Z"/>
              <path class="cls-1" d="M71.46,3.79c.24.2.4.38.47.54.07.16.09.39.07.67-.03.38,0,.64.08.8.08.16.22.27.41.33.05.02.07.05.06.08s-.05.04-.11.03c-.56-.16-.89-.27-1-.34s-.14-.3-.09-.69c.05-.38.07-.65.05-.84-.01-.18-.07-.34-.17-.46-.1-.12-.29-.23-.56-.3-.1-.03-.22-.05-.36-.07-.05.12-.09.25-.12.39-.14.51-.23.84-.26,1-.03.15-.02.28.03.36.05.09.16.16.32.21.07.02.1.05.09.08-.01.04-.06.05-.15.02l-1.48-.42c-.09-.02-.12-.06-.11-.09,0-.04.05-.04.12-.02.15.04.26.05.33.02s.14-.09.2-.17c.06-.09.13-.26.2-.51l.17-.61.26-.93c.13-.47.21-.79.23-.95.02-.16.01-.27-.02-.34-.04-.07-.15-.14-.34-.23-.04-.02-.06-.04-.05-.07,0-.03.06-.04.14-.01l1.78.46c.49.14.81.33.98.58.17.25.21.51.14.78-.05.17-.14.31-.26.43-.13.12-.26.19-.4.22-.14.03-.35.05-.65.05ZM70.35,3.39c.38.1.68.15.88.16.2,0,.39-.05.57-.16.18-.12.3-.28.36-.5.06-.22.04-.44-.06-.65-.1-.21-.32-.36-.65-.45-.18-.05-.38-.08-.61-.1-.18.54-.31.97-.4,1.3-.03.11-.06.24-.09.4Z"/>
              <path class="cls-1" d="M78.36,4.07l.13.06c.03.53,0,1.4-.06,2.61-.04.78-.05,1.26-.03,1.45.03.19.13.34.33.44.06.03.08.07.07.1-.01.03-.03.03-.07.02l-.04-.02c-.17-.09-.39-.19-.66-.3-.42-.17-.69-.28-.81-.32-.06-.02-.08-.05-.07-.09.01-.02.04-.03.08-.02.17.05.29.07.37.06.08-.01.14-.06.17-.15.03-.08.06-.31.08-.69l.04-.56c-.1-.04-.54-.22-1.34-.54-.42.44-.66.74-.72.87-.05.12-.04.22.04.32.07.1.16.17.25.22.07.04.09.07.08.11,0,.01-.02.02-.05.03-.3-.14-.48-.23-.54-.25-.32-.13-.54-.22-.65-.26-.06-.03-.09-.06-.07-.09.01-.03.05-.04.1-.02.23.06.46-.01.69-.24.23-.22.61-.63,1.15-1.22.49-.54.99-1.04,1.5-1.51ZM77.98,4.65c-.33.29-.76.73-1.28,1.32.2.07.34.13.43.16l.8.35c.01-.23.02-.53.03-.91,0-.46.02-.76.02-.92Z"/>
              <path class="cls-1" d="M84.12,11.72l-.12-.06c-1.62-.96-2.45-1.46-2.5-1.48-.07-.04-.1-.06-.12-.08-.01-.01-.01-.03,0-.05.02-.02.11-.07.28-.16s.49-.25.96-.47l1.3-.61c.4-.19.66-.31.81-.37.42-.18.69-.31.8-.4-.31-.2-.55-.35-.72-.46-.27-.16-.48-.26-.63-.29-.15-.04-.29-.04-.43-.01-.13.03-.32.09-.55.2-.11.05-.18.07-.2.06-.03-.02-.03-.04-.01-.07,0,0,.12-.12.35-.32.23-.21.36-.32.4-.35.04-.03.06-.03.08-.03l.38.26c.14.09.43.27.86.53.61.36,1,.58,1.17.65.02,0,.03.02.04.02.02.01.03.03.01.05-.03.05-.65.35-1.86.9-1.1.5-1.88.88-2.34,1.15.25.16.46.3.65.4.25.15.45.25.61.31.16.06.31.1.46.11.15.01.26.01.35,0,.08-.01.23-.06.45-.14.19-.07.3-.1.32-.09.03.02.03.05,0,.09l-.8.7Z"/>
              <path class="cls-1" d="M89.41,10.43l.44.35.7.51c.08.06.11.11.09.14-.02.02-.05.02-.1,0-.2-.12-.36-.14-.49-.06-.13.07-.45.46-.98,1.15-.19.26-.4.55-.63.88s-.36.53-.39.61c-.03.08-.04.15-.02.22.02.07.08.17.19.28.04.04.05.07.03.09-.02.03-.05.03-.09,0l-.61-.47-.53-.39c-.06-.04-.07-.08-.05-.12.03-.03.06-.03.11,0,.16.11.28.13.39.05.1-.08.35-.38.76-.92.39-.51.7-.93.93-1.26.23-.32.35-.54.36-.64s-.04-.21-.15-.32c-.04-.04-.05-.08-.03-.11s.05-.03.09,0Z"/>
              <path class="cls-1" d="M94.77,14.87l.1.1c-.16.5-.49,1.31-.99,2.41-.32.71-.5,1.16-.55,1.35-.04.19,0,.36.15.53.05.05.05.09.03.12-.02.02-.04.02-.07,0l-.03-.03c-.13-.14-.29-.32-.51-.52-.33-.31-.54-.51-.64-.59-.05-.04-.06-.08-.03-.11.02-.02.05-.01.09.01.14.11.25.17.32.19.08.02.15-.01.21-.08.06-.06.17-.27.33-.61l.24-.51c-.08-.07-.43-.4-1.05-.98-.55.26-.88.45-.98.56-.09.09-.11.2-.08.31.03.12.09.21.16.29.05.06.06.1.04.13-.01.01-.03.01-.06,0-.23-.24-.37-.38-.42-.43-.25-.24-.42-.4-.51-.48-.05-.05-.06-.08-.03-.11.02-.02.06-.02.11.02.19.14.44.15.73.03.29-.12.8-.37,1.51-.73.65-.33,1.3-.62,1.95-.87ZM94.21,15.27c-.41.15-.97.41-1.67.77.16.14.27.24.34.31l.62.61c.09-.21.21-.49.36-.84.17-.42.29-.71.35-.85Z"/>
            </g>
            <g>
              <path class="cls-1" d="M103.33,79.35c.84-1.07,1.59-2.23,2.23-3.45.63-1.23,1.19-2.51,1.69-3.81.27-.64.49-1.3.72-1.95.22-.66.42-1.32.61-1.99.17-.69.35-1.37.45-2.07.11-.7.23-1.39.34-2.09.06-.33.12-.66.18-.98l.15-.99c.11-.66.15-1.33.16-2,.01-1.29-.14-2.6-.39-3.82-.11-.59-.27-1.17-.44-1.74-.17-.57-.34-1.13-.52-1.69-.35-1.14-.68-2.26-.88-3.45-.25-1.31-.43-2.64-.66-3.95-.12-.65-.24-1.3-.38-1.93-.07-.32-.13-.64-.19-.96-.07-.32-.13-.64-.19-.96-.05-.32-.1-.64-.15-.96,0-.04-.1-.09-.1-.06.11.64.2,1.29.34,1.92.13.64.26,1.28.4,1.93.25,1.29.45,2.59.66,3.89.21,1.2.43,2.37.78,3.53.16.57.35,1.14.54,1.7.17.57.35,1.14.5,1.72.3,1.18.51,2.41.58,3.67.06.66.03,1.33,0,1.99-.03.69-.17,1.37-.27,2.05-.13.69-.26,1.38-.36,2.08-.12.69-.2,1.38-.37,2.06-.16.67-.32,1.35-.53,2.01-.1.33-.2.66-.31.99l-.35.98c-.23.66-.5,1.3-.75,1.94-.28.64-.54,1.28-.85,1.9-.59,1.25-1.28,2.45-2.06,3.57-.2.27-.39.55-.61.81-.02.03,0,.14.02.12Z"/>
              <path class="cls-1" d="M109.67,57.78c.05-.16,0-.31-.05-.45-.07-.17-.14-.33-.15-.53-.01-.2.03-.4.02-.6,0-.23-.04-.46-.07-.69-.08-.46-.17-.91-.18-1.38,0-.45.04-.9.11-1.34.07-.44.17-.88.26-1.32.09-.48.16-.96.23-1.45.07-.49.14-1,.21-1.49.08-.49.2-.98.35-1.44.07-.22.16-.44.23-.67.03-.11.05-.24.08-.36.05-.26.1-.62.28-.77.04-.03.08-.05.13-.04l-.06-.03c.06.53-.05,1.05-.13,1.54-.09.58-.18,1.18-.26,1.77-.08.64-.18,1.28-.33,1.9-.14.59-.34,1.14-.62,1.65-.14.27-.28.54-.38.83-.11.29-.1.65-.24.92l.1.02c-.19-.28-.14-.67-.23-1.01-.12-.44-.18-.89-.25-1.34-.03-.17-.06-.34-.07-.52-.01-.17,0-.34,0-.51.03-.45.03-.92.1-1.36.06-.37.09-.75.14-1.12.08-.55.12-1.1.21-1.64.03-.22.07-.44.12-.66.03-.11.06-.27.14-.35.02-.02.01,0,0,0l-.04-.02c.1.5.07,1.01.05,1.5,0,.25-.01.49-.02.74,0,.26.01.52.02.78.02.53.05,1.05-.03,1.57-.04.28-.09.56-.14.83-.05.29-.1.58-.16.87l-.4,1.93s.1.05.11.02l.36-1.72c.12-.57.22-1.13.32-1.71.09-.51.09-1.04.07-1.57-.01-.26-.03-.53-.03-.79,0-.25,0-.5.02-.75.02-.55.06-1.12-.04-1.68,0-.02-.03-.02-.04-.02-.11-.02-.16.07-.2.19-.06.17-.1.36-.13.55-.1.54-.15,1.09-.22,1.64-.06.44-.11.89-.17,1.33-.02.12-.04.25-.05.37-.02.23-.03.45-.04.68-.02.38-.07.76-.01,1.14l.1.62c.04.23.07.45.11.68.04.21.11.4.13.61.02.17.04.35.08.52.02.09.06.16.11.23.02.02.09.05.1.02.13-.24.14-.53.2-.8.08-.28.21-.54.34-.79.13-.25.26-.5.37-.77.11-.26.2-.53.27-.82.16-.6.26-1.24.35-1.87l.14-.98c.04-.29.08-.57.12-.86.09-.56.22-1.14.16-1.74,0-.02-.05-.03-.06-.03-.24-.02-.37.21-.44.48-.08.28-.11.59-.2.86-.08.24-.17.47-.24.71-.08.23-.14.47-.19.71-.11.49-.17.99-.24,1.49-.07.5-.15,1.01-.22,1.51-.07.46-.19.91-.27,1.37-.09.44-.15.89-.17,1.35-.03.48.02.94.1,1.41.08.45.17.91.14,1.38-.02.2-.02.4.04.6.05.15.13.29.16.45.02.08.01.17-.01.25,0,.02.1.06.11.02Z"/>
              <path class="cls-1" d="M107.5,49.18c-.33-.62-.65-1.24-1.06-1.79-.11-.13-.21-.27-.31-.4-.1-.12-.18-.26-.26-.4-.17-.28-.31-.58-.47-.87-.08-.14-.17-.27-.24-.41-.07-.14-.14-.29-.2-.44-.11-.3-.2-.6-.32-.9-.12-.33-.26-.65-.4-.96-.12-.25-.26-.48-.39-.71-.11-.19-.22-.4-.39-.52-.11-.08-.27-.1-.36,0-.09.1-.09.27-.08.41.01.19.05.39.1.57.13.44.32.87.52,1.3.15.31.3.62.45.93.14.29.3.56.5.81.37.46.78.84,1.16,1.29.16.2.33.41.5.6.17.19.34.38.54.51.08.05.16.09.25.12.02,0,.03,0,.03-.03-.04-.28-.15-.53-.28-.76-.07-.12-.13-.24-.19-.37-.06-.14-.12-.28-.17-.42-.1-.29-.19-.57-.34-.82-.16-.26-.34-.5-.53-.73-.21-.26-.42-.51-.61-.79-.03-.04-.12-.06-.07,0,.34.48.73.89,1.06,1.4.08.12.16.25.21.39.06.14.11.28.16.42.09.27.2.53.33.78.15.27.29.54.34.86l.03-.03c-.19-.05-.36-.2-.51-.36-.17-.18-.34-.38-.5-.58-.15-.19-.31-.37-.47-.55-.2-.22-.4-.43-.6-.65-.2-.22-.38-.45-.54-.72-.17-.28-.3-.59-.45-.89-.15-.31-.29-.62-.43-.93-.08-.17-.14-.34-.2-.51-.06-.18-.11-.36-.14-.54-.03-.16-.06-.34-.02-.5.03-.13.1-.22.22-.21.07,0,.13.08.18.14.07.09.13.18.18.28.12.21.24.42.35.63.16.3.28.62.41.93.23.56.37,1.16.68,1.68.32.51.56,1.11.93,1.57.2.26.41.52.59.8.17.28.34.57.5.86l.24.45s.04.06.06.06c.02,0,.04-.01.02-.04Z"/>
              <path class="cls-1" d="M107.15,45.65c.09-.94.31-1.86.43-2.8.03-.24.07-.47.08-.71,0-.24.02-.49.03-.73.02-.47.12-.92.13-1.39,0-.53-.07-1.08-.13-1.62l-.02.03c.13-.01.26.04.37.15.12.12.2.3.26.47.16.46.23.96.26,1.43.02.43.02.85.01,1.26,0,.26-.03.5-.1.73-.12.39-.32.71-.53,1.02-.2.29-.41.57-.58.91-.14.29-.22.62-.26.96-.01.1-.02.2-.03.31l.07.06c-.1-.75-.12-1.52-.16-2.27-.01-.38-.01-.76,0-1.13,0-.34-.03-.72.17-.96.08-.09.18-.15.26-.23.09-.09.14-.2.14-.35,0-.05-.08-.15-.08-.07,0,.29-.24.36-.38.52-.19.23-.19.57-.19.9-.02.76,0,1.52.06,2.28.02.43.06.85.11,1.27,0,.03.01.07.04.08.02.01.03,0,.04-.02.02-.38.07-.76.21-1.09.15-.35.38-.64.58-.94.21-.31.42-.62.56-1,.09-.26.14-.54.15-.84.01-.42.01-.85,0-1.28-.02-.5-.1-1.01-.26-1.5-.11-.36-.34-.75-.66-.8-.04,0-.07,0-.11,0-.01,0-.02.02-.02.03.05.48.13.96.13,1.43,0,.48-.07.93-.11,1.39-.02.24-.02.49-.03.73,0,.24-.03.48-.07.72-.06.48-.14.94-.21,1.4-.1.52-.19,1.05-.24,1.58,0,.05.07.15.07.07Z"/>
              <path class="cls-1" d="M108.65,40.82c.13-.2.19-.47.24-.73.05-.26.11-.53.27-.7h-.04c.28.24.32.78.29,1.13-.03.45-.14.93-.39,1.22-.11.13-.26.22-.43.18-.06-.01-.02.12.02.13.36.08.61-.3.74-.67.15-.43.22-.97.11-1.48-.05-.24-.16-.48-.32-.63-.01-.01-.03-.02-.04,0-.33.35-.25,1.03-.52,1.44-.03.04.05.16.08.11Z"/>
              <path class="cls-1" d="M105.78,40.34c-.11-.25-.19-.51-.27-.77-.09-.26-.17-.51-.25-.77-.14-.53-.34-1.03-.56-1.51-.11-.26-.28-.47-.41-.71-.14-.24-.26-.49-.39-.72-.07-.14-.14-.29-.2-.44-.06-.15-.11-.31-.17-.45-.06-.16-.12-.33-.15-.51-.02-.1-.04-.27.04-.33h-.07c.07.01.14.11.18.16.05.07.09.14.13.21.1.16.24.3.32.47.09.21.15.42.22.63.04.11.09.22.14.33.04.12.09.23.14.34l.31.71c.09.26.16.53.22.8.14.53.2,1.11.37,1.64.05.14.09.29.13.43l.07.34c.05.22.11.45.1.67h.02c-.11-.03-.22-.12-.31-.2-.12-.1-.23-.21-.34-.32-.22-.23-.41-.48-.6-.74-.2-.27-.39-.54-.55-.83-.18-.28-.34-.56-.46-.86-.1-.28-.26-.58-.21-.87h-.09c.27.13.43.4.59.68.19.34.46.62.68.94.1.16.2.33.29.51l.2.46c.07.15.14.3.23.44.09.14.19.26.29.38.21.27.44.58.71.77,0,0,.06.04.07.02,0-.01-.02-.03-.03-.04-.12-.08-.21-.2-.31-.31-.11-.13-.21-.26-.32-.39-.1-.13-.21-.25-.3-.39-.09-.14-.16-.29-.23-.44l-.2-.44c-.08-.18-.18-.35-.28-.51-.21-.33-.48-.61-.67-.95-.09-.15-.16-.3-.26-.43-.1-.14-.23-.25-.37-.32-.01,0-.09-.03-.09-.01-.05.27.08.54.18.79.1.27.23.53.39.77.2.3.38.63.6.92.22.29.45.59.7.85.13.13.26.26.4.37.12.09.24.17.38.2,0,0,.02,0,.02,0,0-.19-.04-.41-.08-.6-.05-.24-.1-.47-.17-.71-.09-.29-.16-.59-.22-.88-.06-.3-.11-.6-.19-.89-.07-.27-.14-.54-.23-.81-.1-.25-.22-.5-.32-.75-.05-.13-.1-.25-.15-.38-.05-.12-.1-.25-.14-.37-.06-.21-.13-.41-.23-.61-.06-.1-.13-.19-.19-.27-.06-.07-.1-.14-.15-.22-.09-.14-.18-.31-.36-.3-.11,0-.11.12-.11.21,0,.14.05.29.09.42.09.27.2.53.31.81.1.24.23.45.35.68.12.23.25.46.39.68.15.22.25.47.36.71.1.25.2.49.29.75.15.52.32,1.03.49,1.55.04.13.09.25.15.38,0,.02.05.04.06.04,0,0,.05.02.04,0Z"/>
              <path class="cls-1" d="M106.2,40.73c-.02-.17.03-.35.05-.51.04-.28.09-.55.13-.84.04-.3.05-.6.04-.91,0-.25-.02-.52-.13-.76-.11-.23-.29-.39-.49-.39,0,0-.02,0-.02.02-.02.28.07.55.08.83.01.28-.01.55-.05.82-.06.48-.16.96-.16,1.46.01.51.12,1.01.29,1.51.13.38.28.76.38,1.16.05.2.09.4.12.6.02.13.04.34-.04.44h.04c-.07-.05-.11-.16-.14-.25-.04-.1-.09-.19-.14-.29-.12-.21-.24-.42-.36-.63-.1-.19-.19-.38-.32-.55-.11-.16-.23-.32-.33-.48-.12-.19-.22-.38-.27-.61l-.05.03c.3.18.5.56.71.87.26.39.52.78.78,1.17.04.07.09.02.05-.05l-.41-.64c-.12-.19-.27-.37-.39-.57-.21-.33-.42-.7-.73-.88-.02-.01-.05,0-.05.03.09.42.35.75.58,1.08.13.18.23.37.33.56.13.23.26.45.39.68.06.11.11.22.16.33.04.11.1.21.18.28.01,0,.03.02.04,0,.07-.09.08-.23.07-.35,0-.18-.04-.36-.08-.54-.08-.36-.18-.71-.31-1.05-.19-.5-.35-1.04-.39-1.57-.04-.5.04-1.01.12-1.49.04-.29.09-.57.09-.88,0-.33-.09-.66-.08-.98l-.02.02c.16,0,.27.1.35.28.1.23.11.49.12.72,0,.29,0,.57-.04.85-.03.28-.08.55-.13.83-.02.11-.03.23-.05.34,0,.07-.02.15-.01.23,0,.03.02.06.05.08.02.01.05.01.05-.02Z"/>
              <path class="cls-1" d="M105.24,38.67s.06.02.07,0c0-.02-.02-.03-.04-.04-.01,0-.06-.02-.07,0,0,.02.02.03.04.04Z"/>
              <path class="cls-1" d="M105.31,38.66c-.02-.54-.07-1.06-.15-1.61-.04-.26-.13-.5-.22-.75-.09-.21-.2-.38-.35-.55-.16-.16-.33-.33-.4-.56,0-.03-.04-.04-.06-.04h-.12c-.07-.01-.06.06.01.07h.12s-.06-.03-.06-.03c.12.4.52.6.7.99.11.23.19.49.25.74.05.27.08.55.11.82.03.3.05.59.07.9,0,.06.11.08.11.02Z"/>
              <path class="cls-1" d="M103.36,35.42c-.23-.16-.47-.28-.69-.41-.08-.04-.16-.1-.24-.13l-.2-.1c-.11-.06-.24-.14-.36-.15-.01,0-.04,0-.05,0-.02.01-.03.06-.03.08-.01.05-.01.1,0,.14.02.1.08.19.15.25.04.04.09.08.14.12l.15.14c.1.09.22.18.33.26l.16.12c.05.05.1.09.16.13.2.13.43.2.61.38.17.17.28.4.48.54.02.02,0-.02,0-.03-.01-.02-.03-.05-.06-.07-.18-.12-.27-.33-.42-.47-.14-.15-.31-.24-.47-.32-.09-.05-.18-.09-.26-.16-.04-.04-.08-.06-.12-.09-.1-.07-.2-.14-.29-.22-.1-.08-.2-.18-.29-.25-.08-.06-.15-.14-.19-.23-.01-.04-.02-.09-.02-.13,0-.04.02-.12.06-.13.05-.01.11.02.15.03.06.03.13.06.19.09l.2.11c.08.05.16.09.24.14.23.14.49.25.72.43.02.01.02,0,.01-.01,0-.02-.04-.05-.06-.06Z"/>
              <path class="cls-1" d="M104.46,37.41s-.02-.12-.05-.12c0,0,.02.12.05.12Z"/>
              <path class="cls-1" d="M109.33,48.93c.03-.22.06-.44.12-.65.06-.21.17-.38.27-.56.19-.33.3-.76.59-.94.03-.02,0-.16-.03-.14-.31.19-.41.64-.61.98-.1.18-.21.35-.27.57-.06.22-.09.45-.13.68,0,.03,0,.08.02.1.02.02.03,0,.04-.03Z"/>
              <path class="cls-1" d="M111,46.97c.41-.37.81-.77,1.21-1.18l-.06-.09c.06.18,0,.4-.06.55-.08.22-.18.41-.29.59-.09.14-.18.28-.28.41-.14.19-.32.3-.52.38-.22.09-.44.15-.63.3-.02.02.04.14.06.13.36-.28.83-.26,1.14-.66.23-.29.44-.62.58-1,.07-.19.12-.42.05-.64,0-.01-.04-.11-.06-.09-.4.4-.79.81-1.21,1.18-.02.02.04.14.06.13Z"/>
              <path class="cls-1" d="M109.72,56.81c-.11,0-.19-.13-.25-.24-.08-.13-.14-.27-.21-.41-.08-.16-.18-.29-.26-.45-.1-.19-.2-.39-.3-.6-.17-.36-.31-.74-.46-1.11-.13-.32-.29-.61-.5-.87-.08-.1-.17-.2-.24-.32-.08-.13-.14-.26-.2-.4-.06-.15-.12-.3-.15-.46-.01-.06-.02-.13-.02-.2,0-.03,0-.07.02-.1.01-.04.03-.04.06-.04.11,0,.21.12.29.22.09.12.17.25.24.38.09.14.19.27.29.4.12.16.25.33.36.51.23.35.39.76.55,1.16.07.19.13.37.17.57.03.18.06.37.12.55.03.09.06.18.1.26,0,.01.01-.05.01-.05,0-.02,0-.07,0-.09-.18-.35-.18-.78-.3-1.15-.07-.22-.16-.43-.25-.63-.09-.2-.18-.4-.29-.59-.11-.19-.23-.37-.36-.54-.11-.15-.24-.29-.34-.45-.08-.13-.16-.26-.24-.38-.08-.11-.17-.24-.29-.28-.02,0-.05-.01-.07-.01-.03,0-.04,0-.05.04-.02.06-.03.12-.03.18,0,.15.01.3.05.44.08.31.21.61.38.86.08.13.18.24.28.36.1.14.19.29.27.45.17.33.29.7.44,1.06.18.42.37.85.6,1.22.08.13.14.26.21.4.07.14.14.28.24.38.04.04.08.07.13.07.01,0,.02-.14,0-.14Z"/>
              <path class="cls-1" d="M109.97,60.05c.25-.54.16-1.17.14-1.75-.01-.65,0-1.29.06-1.93.07-.64.19-1.26.37-1.85.1-.31.21-.61.33-.91.1-.26.19-.52.31-.77.1-.21.22-.4.35-.57.07-.09.14-.17.22-.24.06-.05.13-.1.2-.11l-.06-.03c.03.31-.09.59-.21.83-.14.26-.3.48-.46.72-.17.25-.3.54-.41.83-.13.34-.24.7-.32,1.06-.07.31-.17.61-.26.92-.13.43-.25.86-.35,1.3-.05.19-.1.39-.13.59-.01.09-.04.25.03.31.02.02.08.02.1,0,.15-.24.19-.54.26-.83.03-.14.08-.28.14-.41.07-.14.15-.26.23-.39.14-.23.26-.47.32-.76.05-.24.08-.49.09-.75,0-.3,0-.61.04-.91,0-.04-.1-.04-.11,0-.05.52,0,1.06-.1,1.57-.05.27-.15.51-.28.73-.15.25-.32.48-.4.78-.08.31-.12.65-.28.92h.1c-.05-.05-.03-.2-.02-.27.02-.17.06-.34.11-.51.1-.43.22-.86.34-1.29.09-.31.19-.63.27-.95.08-.32.16-.64.27-.95.11-.32.25-.64.42-.92.17-.26.35-.5.5-.77.14-.25.27-.56.24-.9,0-.03-.04-.03-.06-.03-.15,0-.28.13-.4.25-.14.15-.26.33-.37.52-.11.19-.19.39-.27.6-.12.3-.24.61-.35.92-.21.6-.35,1.21-.45,1.86-.1.65-.11,1.31-.12,1.98,0,.67.16,1.42-.13,2.05-.02.04.09.06.1.02Z"/>
              <path class="cls-1" d="M107.54,51.25c-.15-.3-.4-.5-.61-.72-.24-.25-.44-.56-.66-.83-.21-.25-.44-.46-.66-.68-.22-.21-.44-.43-.68-.6-.26-.18-.54-.32-.84-.3-.03,0-.05.02-.05.06,0,.16.08.31.18.42.12.14.27.25.42.35.15.1.29.19.44.29.19.13.37.3.54.47.21.22.43.48.67.65.23.16.48.2.73.26.16.04.33.1.48.21.11.09.23.19.33.29.13.13.27.26.37.43.04.06.07.12.09.19.01.05,0,.08-.02.11h.07c-.19-.14-.24-.38-.31-.63-.03-.12-.06-.24-.11-.35-.06-.14-.15-.26-.24-.37-.19-.23-.41-.4-.6-.63-.15-.2-.3-.42-.4-.66-.06-.14-.09-.29-.09-.44,0-.18.04-.36.04-.54l-.07.06c.27.04.38.46.47.73.05.16.1.31.16.47.09.23.18.45.28.67.11.25.22.5.32.76.03.06.13.04.1-.03-.2-.47-.39-.93-.59-1.4-.14-.32-.2-.69-.36-1-.08-.16-.21-.28-.36-.3-.03,0-.07.01-.07.06,0,.17-.03.34-.04.51,0,.14,0,.28.05.41.09.26.24.5.39.71.17.24.39.42.58.63.1.11.2.24.28.39.06.11.09.24.13.37.04.13.07.27.12.4.06.13.14.23.24.31.02.01.05,0,.07,0,.2-.18-.16-.58-.26-.69-.12-.13-.24-.25-.37-.36-.08-.07-.17-.15-.26-.2-.24-.14-.5-.17-.75-.25-.13-.04-.25-.09-.37-.17-.12-.09-.24-.2-.35-.31-.22-.23-.45-.48-.69-.68-.12-.1-.26-.18-.39-.27-.18-.11-.35-.23-.51-.37-.12-.11-.26-.26-.25-.45l-.05.06c.53-.03,1,.45,1.4.84.22.21.44.41.64.65.22.26.41.55.64.81.22.26.5.45.67.78.03.06.13.02.09-.06Z"/>
              <path class="cls-1" d="M107.19,48.57c.07-.44.09-.91.2-1.33.03-.1.06-.19.09-.29l.08-.31c.05-.19.1-.39.2-.55.04-.06.2-.28.27-.17.1.15.08.4.05.56-.03.19-.1.36-.17.54-.03.08-.06.16-.08.25-.02.11-.03.22-.06.32-.07.22-.19.4-.24.64-.05.24-.06.5-.1.74,0,.04.1.08.1.06.03-.23.04-.48.09-.71.05-.22.16-.4.23-.61.04-.12.05-.24.08-.37.02-.09.05-.18.08-.27.07-.19.14-.37.17-.58.03-.17.04-.41-.07-.55-.08-.11-.2-.14-.3-.08-.14.08-.22.26-.28.43-.07.21-.12.44-.18.66-.04.11-.08.22-.1.34-.03.13-.05.27-.07.4-.04.28-.07.55-.11.83,0,.04.1.08.1.06Z"/>
              <path class="cls-1" d="M103.77,36.8c.18.05.33.21.47.33.14.12.29.26.46.25.02,0,.06,0,.06-.04,0-.03-.03-.04-.05-.04-.16,0-.31-.16-.44-.27-.14-.12-.28-.26-.45-.31-.03,0-.06,0-.08.02-.01.02-.01.04.01.05Z"/>
              <path class="cls-1" d="M109.58,61.48s.02-.03.02-.04c0-.03-.02-.06-.04-.08-.02-.02-.02.03-.02.04,0,.03.02.06.04.08Z"/>
              <path class="cls-1" d="M109.61,61.85c.21-.34.01-.8-.14-1.07-.2-.36-.44-.66-.68-.95-.19-.24-.37-.47-.59-.68-.26-.26-.53-.49-.79-.72-.26-.23-.52-.45-.76-.71-.23-.27-.47-.54-.7-.8-.21-.23-.43-.43-.68-.59-.23-.15-.49-.27-.75-.25,0,0-.02,0-.02.02-.11.31.17.6.35.77.23.22.5.39.75.57.22.15.44.27.64.44.23.2.39.49.56.76.09.13.17.26.27.38.1.11.21.2.32.29.22.17.45.31.65.51.24.24.39.57.61.84.09.12.2.21.3.32.1.11.18.25.2.42,0,.04.07.08.09.05.1-.13.1-.33.09-.49-.01-.25-.06-.49-.12-.72-.1-.44-.23-.86-.41-1.26-.13-.32-.37-.52-.59-.71-.21-.18-.43-.36-.59-.62-.2-.3-.35-.65-.48-1-.14-.35-.25-.71-.36-1.07-.12-.35-.23-.7-.34-1.06-.05-.17-.1-.35-.14-.53-.03-.13-.06-.28-.04-.41,0-.07.04-.17.11-.17.04,0,.08.02.11.05.06.05.12.11.17.18.18.26.28.61.4.92.13.36.3.69.44,1.04.13.35.24.71.35,1.06.11.35.23.71.35,1.05.06.17.12.34.19.51.06.15.14.3.2.46.21.58.16,1.24.23,1.86.04.34.14.65.23.97.05.17.11.35.15.53.04.19.07.39.12.58.04.18.09.36.11.56,0,.05.1.1.1.03-.02-.2-.07-.39-.11-.58-.05-.19-.08-.39-.12-.59-.08-.36-.21-.69-.3-1.05-.15-.63-.07-1.3-.2-1.92-.03-.15-.07-.3-.13-.44-.07-.16-.14-.32-.21-.49-.13-.34-.25-.7-.37-1.06-.12-.36-.23-.73-.35-1.09-.13-.39-.3-.75-.45-1.13-.14-.32-.23-.66-.38-.97-.07-.14-.14-.28-.25-.38-.08-.08-.18-.16-.29-.17-.19-.01-.2.24-.18.42.02.17.06.33.1.49.05.18.1.37.16.55.24.73.44,1.47.75,2.16.14.32.3.65.5.9.19.23.42.4.63.6.12.11.24.23.33.38.05.09.09.19.13.29.09.21.16.42.22.64.07.25.14.5.19.77.04.21.07.44.04.65,0,.08-.04.15-.08.2l.09.05c-.04-.29-.21-.46-.38-.63-.21-.21-.36-.49-.53-.74-.17-.25-.39-.43-.61-.6-.22-.16-.46-.32-.64-.55-.19-.24-.34-.53-.53-.78-.09-.12-.19-.24-.3-.33-.11-.09-.24-.17-.36-.25-.27-.18-.55-.36-.8-.56-.14-.11-.29-.24-.39-.4-.08-.12-.14-.27-.09-.42l-.02.02c.23-.01.46.1.66.23.2.13.39.29.57.48.24.25.46.53.69.79.22.25.45.47.7.68.5.45,1.04.88,1.46,1.45.21.28.44.54.63.85.12.18.23.39.29.62.04.18.05.38-.05.54-.03.04.06.12.09.07Z"/>
              <path class="cls-1" d="M109.44,61.12c.01-.5-.04-.99-.13-1.47-.09-.47-.26-.93-.43-1.36-.08-.19-.13-.39-.18-.6-.04-.2-.09-.41-.14-.62-.05-.2-.12-.39-.22-.56-.06-.1-.12-.18-.2-.25-.09-.08-.17-.16-.22-.28-.04-.12-.06-.25-.11-.36-.05-.11-.12-.2-.21-.26-.17-.12-.36-.14-.53-.28l.02.08.02-.14c.01-.08-.08-.13-.09-.04l-.02.14s0,.06.02.08c.14.12.3.16.46.24.08.04.15.1.21.19.06.09.08.2.11.31.03.12.07.22.14.3.07.09.16.15.23.24.11.15.19.34.25.53.06.19.1.39.14.59.04.2.08.4.14.58.08.21.15.41.23.61.07.22.15.44.2.67.12.52.19,1.07.17,1.63,0,.09.09.1.1.01Z"/>
              <path class="cls-1" d="M106.49,55.06c-.14-.05-.28-.09-.41-.15-.14-.06-.25-.16-.37-.27-.11-.12-.22-.25-.34-.37-.06-.06-.13-.12-.19-.18-.12-.13-.24-.27-.38-.4-.1-.09-.24-.22-.37-.2-.12.02-.14.18-.13.31.02.17.1.33.19.47.19.32.43.61.69.86.22.21.48.37.74.5.3.16.61.29.93.42.02,0,.02-.12,0-.13-.52-.22-1.06-.43-1.54-.81-.25-.2-.48-.47-.67-.75-.1-.14-.2-.29-.26-.46-.02-.05-.03-.1-.02-.15.01-.06.05-.11.1-.12.12-.04.26.08.35.17.13.12.25.25.37.38.05.06.11.11.16.16.13.11.24.25.36.38.11.13.23.24.37.31.15.07.3.11.45.17.02,0,.01-.12-.01-.13Z"/>
              <path class="cls-1" d="M108.96,65.95c.32-.56.43-1.22.61-1.84.11-.36.27-.69.42-1.02l.44-1.1c.13-.34.25-.69.36-1.03.1-.3.22-.58.36-.85.18-.33.35-.68.53-1.01.11-.19.23-.38.37-.52.1-.1.23-.17.35-.09l-.03-.08c-.03.39-.13.75-.26,1.08-.14.33-.32.63-.51.92-.19.29-.39.58-.58.86-.1.16-.22.31-.33.47-.1.14-.2.28-.31.41-.22.25-.47.48-.6.83-.03.08.05.14.08.05.11-.32.35-.53.55-.75.11-.13.21-.27.31-.41l.34-.48c.38-.56.79-1.11,1.1-1.78.15-.37.26-.78.29-1.21,0-.03-.01-.06-.03-.08-.25-.17-.52.19-.68.44-.23.34-.39.73-.59,1.1-.11.21-.22.41-.31.64-.14.34-.23.69-.36,1.04-.13.38-.28.74-.43,1.11-.07.18-.14.37-.22.55-.08.18-.17.36-.24.54-.14.35-.22.72-.31,1.09-.1.37-.21.73-.4,1.05-.04.07.02.17.06.09Z"/>
              <path class="cls-1" d="M109.56,56.05c.04-.14.06-.28.09-.43.03-.12.06-.25.13-.34.14-.16.33-.27.49-.4,0,0-.04,0-.04,0-.02,0-.05,0-.07.01-.16.13-.35.24-.5.41-.07.08-.1.21-.13.33-.03.14-.05.29-.09.43,0,0,.1.02.11,0Z"/>
              <path class="cls-1" d="M111.1,55.11c.16.08.35.02.49-.09.17-.13.32-.31.46-.49.18-.22.39-.39.59-.56.21-.18.43-.36.66-.49.09-.05.19-.1.29-.13.08-.02.16,0,.21.11.08.2-.11.43-.21.55-.17.2-.36.38-.55.56-.26.24-.52.46-.78.68-.23.2-.48.44-.76.52-.24.07-.5-.02-.73-.12-.02,0-.05,0-.07,0,0,0-.04.01-.04.02.22.09.44.16.67.15.21-.01.42-.09.61-.22.14-.1.27-.22.39-.33l.41-.35c.27-.23.53-.48.78-.74.13-.14.29-.29.37-.49.03-.09.04-.19,0-.27-.05-.09-.13-.11-.21-.1-.2,0-.4.11-.58.22-.26.16-.51.37-.75.58-.12.1-.24.21-.35.33l-.24.29c-.09.1-.18.2-.29.28-.09.07-.18.13-.29.07-.02,0-.05,0-.07,0,0,0-.04.01-.04.02Z"/>
              <path class="cls-1" d="M109.88,63c.07-.17.15-.33.27-.45.1-.1.22-.17.34-.23.31-.16.62-.31.93-.5.33-.2.63-.45.9-.75.29-.31.57-.65.87-.98.1-.12.2-.25.31-.36.11-.11.23-.25.37-.24l-.05-.03c.08.13.06.31.01.46-.06.22-.15.42-.25.61-.18.36-.4.7-.64.98-.19.22-.44.35-.66.47-.13.07-.26.14-.39.22-.1.07-.2.15-.31.21-.36.23-.77.28-1.14.42-.4.15-.84.38-1.02.94,0,.03.09.06.11.02.13-.4.41-.64.7-.79.32-.16.65-.23.98-.34.15-.05.29-.1.43-.19.08-.04.15-.1.22-.16.1-.07.2-.13.31-.19.33-.19.68-.34.95-.69.2-.26.38-.55.54-.86.08-.16.16-.32.22-.5.04-.13.09-.28.08-.43,0-.06-.02-.12-.04-.16-.04-.08-.12-.06-.18-.05-.16.04-.29.19-.42.33-.35.4-.7.81-1.05,1.2-.2.21-.39.42-.62.58-.23.17-.46.31-.69.44-.2.11-.41.21-.61.31-.16.08-.31.19-.43.36-.07.1-.12.21-.17.32,0,.02.09.06.11.02Z"/>
              <path class="cls-1" d="M108.47,67.76c.08-.12.06-.33.05-.46-.01-.21-.06-.42-.1-.62-.11-.45-.28-.88-.45-1.29-.13-.3-.26-.6-.4-.89-.14-.28-.29-.54-.38-.84-.15-.49-.11-1.04-.19-1.55-.07-.47-.21-.96-.14-1.44,0-.05.02-.11.04-.16.01-.04.04-.15.07-.17.05-.03.11.05.13.1.08.17.1.39.14.57.01.07.03.14.05.21.06.14.15.25.23.37.08.13.16.28.16.46,0,.12-.02.24-.02.36,0,.28.04.55.12.8.08.27.18.53.23.82.09.57.06,1.18.24,1.71.05.13.1.26.17.37.06.1.12.21.16.33.09.26.02.55.04.84,0,.13.02.25.06.37,0,0,0,.01,0,0,.13-.29.1-.64.08-.93-.03-.39.01-.78.02-1.17,0-.41-.02-.81-.17-1.16-.07-.17-.15-.33-.23-.49-.08-.16-.18-.31-.23-.49-.08-.3-.11-.72-.41-.82,0,0,0,.13.02.13.29.09.3.51.39.8.05.17.14.31.22.46.09.17.19.35.26.54.16.41.14.86.12,1.32,0,.2-.02.41-.02.61,0,.17.02.34.03.51,0,.08,0,.17,0,.26,0,.04-.01.08-.02.13,0,.03-.02.11-.04.13-.01.01-.01,0-.02-.02,0-.02-.01-.05-.02-.08,0-.05-.01-.09-.02-.14,0-.08,0-.17,0-.26,0-.17.02-.35-.02-.51-.03-.17-.1-.3-.17-.44-.09-.16-.17-.31-.23-.5-.05-.18-.09-.37-.11-.56-.03-.37-.06-.76-.12-1.13-.06-.37-.23-.68-.29-1.04-.04-.18-.02-.36,0-.54.01-.16,0-.32-.04-.47-.05-.19-.15-.33-.25-.48-.05-.07-.1-.15-.13-.23-.02-.04-.02-.09-.03-.14-.03-.13-.05-.26-.08-.39-.03-.1-.06-.22-.12-.3-.02-.03-.05-.05-.08-.05-.02,0-.03,0-.04.02-.02.03-.03.07-.04.11-.05.14-.07.29-.07.43,0,.31.04.62.1.92.03.15.06.29.08.44.02.17.04.35.05.52.02.33.04.65.11.97.09.38.28.7.43,1.03.18.39.36.79.52,1.21.09.24.18.48.25.72.07.25.14.53.15.81,0,.08,0,.17-.05.24-.01.02,0,.07,0,.09,0,0,0,.06.01.05Z"/>
              <path class="cls-1" d="M106.94,63.08c-.52-.35-.97-.9-1.37-1.43-.17-.23-.34-.46-.5-.69-.14-.22-.3-.45-.41-.7-.13-.29-.19-.61-.18-.94h-.1c.29.7.86,1.24,1.34,1.8.24.28.47.59.69.9.12.16.23.33.33.52.09.17.13.36.19.55.11.4.28.83.59,1.05.02.01.05.02.06,0,.01-.03-.02-.06-.03-.07-.13-.1-.23-.25-.31-.41-.08-.17-.15-.35-.2-.54-.05-.18-.09-.36-.17-.52-.09-.18-.19-.35-.31-.51-.21-.3-.43-.6-.66-.87-.23-.28-.49-.55-.73-.83-.27-.32-.52-.66-.68-1.06-.01-.03-.1-.07-.1-.01-.03.61.24,1.13.56,1.6.16.24.33.47.5.7.21.28.42.55.66.81.26.28.51.54.82.74.02.01.05.02.06-.01.01-.03-.02-.05-.03-.06Z"/>
              <path class="cls-1" d="M107.56,71.2l.59-.95c.18-.29.32-.59.46-.9.13-.31.27-.62.44-.91l.12-.24c.15-.31.3-.62.46-.92.18-.33.36-.66.56-.96.12-.17.35-.48.52-.3l-.02-.1c-.08.3-.22.58-.36.84-.15.27-.3.54-.46.82l-.52.98-.28.49c-.1.16-.19.33-.28.5-.09.14-.2.25-.31.36-.11.11-.21.22-.29.37-.01.03-.02.15.03.11.16-.13.34-.16.52-.23.19-.08.36-.23.53-.38.33-.28.72-.43,1.03-.77.35-.37.63-.85.98-1.24.13-.15.27-.28.41-.42.11-.11.21-.24.33-.32.11-.07.2-.07.28.02.05.05.07.11.06.2-.02.11-.08.2-.13.28-.07.11-.15.2-.23.3-.14.15-.28.28-.43.42-.35.31-.67.65-1.04.92-.32.24-.66.5-1.01.6-.18.06-.36.06-.54.08-.18.02-.36.05-.54.11-.09.03-.18.06-.26.11-.04.02-.04.16.01.13.39-.18.77-.19,1.16-.25.36-.05.7-.29,1.03-.53.39-.28.75-.61,1.11-.95.16-.15.32-.29.48-.46.16-.17.34-.37.43-.62.09-.25.01-.47-.16-.56-.1-.05-.22.02-.32.11-.12.1-.22.23-.33.35-.15.16-.31.31-.46.49-.17.21-.33.44-.5.66-.16.22-.33.44-.53.6-.17.14-.36.25-.53.36-.19.13-.37.29-.55.43-.1.08-.19.14-.3.18-.09.04-.18.06-.27.09-.09.03-.17.07-.25.14l.03.11c.15-.27.38-.4.55-.64.1-.14.19-.31.28-.47l.28-.49c.19-.33.36-.66.54-1,.15-.29.32-.58.48-.86.15-.29.31-.58.4-.92,0-.03,0-.08-.02-.1-.15-.16-.35.02-.48.18-.23.27-.39.61-.57.92-.18.32-.35.66-.51.99-.16.34-.34.67-.5,1.01-.16.35-.3.71-.49,1.03l-.68,1.08s0,.17.05.09Z"/>
              <path class="cls-1" d="M108.07,70.8c.24.27.56.3.9.2.17-.05.35-.12.52-.22.21-.12.4-.31.55-.53.18-.25.33-.54.49-.82.04-.07-.03-.17-.07-.09-.26.45-.51.96-.89,1.24-.16.12-.35.19-.52.25-.15.06-.31.09-.46.09-.18,0-.33-.09-.45-.23-.05-.06-.12.05-.07.11Z"/>
              <path class="cls-1" d="M108.36,69.16c-.33.81-.66,1.63-.96,2.45-.33.82-.64,1.64-.99,2.45-.17.41-.36.8-.55,1.2-.19.4-.39.78-.61,1.16-.21.39-.44.77-.69,1.13-.24.37-.51.71-.81,1.02-.16.16-.3.33-.47.48-.13.13-.26.26-.39.38-.24.23-.52.43-.73.69-.05.06-.09.12-.13.18-.02.03,0,.09.03.09.17.01.34-.09.49-.22.17-.15.33-.33.47-.53l.38-.56.57-.87c.19-.29.35-.59.51-.89.14-.25.29-.5.44-.75.31-.49.65-.96.94-1.47.34-.56.62-1.16.77-1.8.02-.08-.07-.11-.09-.02-.27,1.12-.94,2.08-1.56,3.01-.15.23-.29.47-.44.71-.16.27-.3.56-.46.83-.32.52-.66,1.03-1,1.53-.14.21-.28.42-.46.59-.15.15-.35.32-.53.31l.03.09c.17-.28.46-.49.7-.7.28-.25.56-.52.82-.8.3-.32.6-.64.84-1.01.24-.36.49-.72.7-1.1.44-.75.82-1.54,1.18-2.34l.51-1.21.48-1.22c.17-.41.31-.82.47-1.23l.48-1.22.12-.31c.03-.08-.05-.14-.09-.05Z"/>
            </g>
            <g>
              <path class="cls-1" d="M11.39,79.52c-.73-1.18-1.38-2.39-1.98-3.61-.59-1.24-1.14-2.5-1.57-3.79-.4-1.3-.76-2.61-1.04-3.94l-.23-1.01c-.07-.34-.14-.68-.22-1.02-.17-.67-.29-1.36-.38-2.06-.1-.65-.11-1.31-.17-1.97-.06-.65-.09-1.31-.17-1.97-.09-.63-.18-1.27-.26-1.9-.09-.63-.21-1.27-.33-1.89-.1-.6-.24-1.19-.38-1.78l-.37-1.79c-.22-1.21-.35-2.45-.27-3.72.07-1.42.3-2.83.58-4.23.15-.69.3-1.39.47-2.07.2-.68.38-1.37.66-2.03.13-.33.28-.65.43-.96.02-.04-.03-.14-.04-.12-.63,1.28-1.05,2.66-1.35,4.05-.08.35-.16.69-.23,1.04l-.2,1.04c-.14.69-.22,1.4-.3,2.09-.13,1.29-.15,2.56.02,3.82.07.62.2,1.22.32,1.83l.18.9.2.9c.24,1.22.47,2.46.63,3.7.1.65.19,1.3.24,1.96.05.68.12,1.36.15,2.04.03.7.14,1.38.25,2.07.12.68.31,1.34.43,2.02l.45,2,.25.99.12.5.15.49c.75,2.64,1.91,5.13,3.3,7.53.17.3.34.6.53.89.02.03.14.05.12.02Z"/>
              <path class="cls-1" d="M5.25,57.96c.04-.16,0-.31-.06-.45-.07-.17-.14-.33-.16-.53-.01-.2.02-.4.02-.6,0-.24-.03-.47-.06-.7-.05-.47-.13-.93-.1-1.41.03-.46.12-.91.23-1.34.11-.44.28-.86.43-1.28.17-.46.31-.92.48-1.38.17-.47.34-.94.53-1.38.2-.45.44-.87.71-1.24.14-.18.28-.36.41-.54.07-.09.13-.19.19-.29.13-.21.29-.51.51-.58.05-.02.09-.01.14,0l-.04-.04c-.11.48-.39.89-.6,1.31-.25.49-.49,1.02-.71,1.54-.23.57-.46,1.16-.72,1.72-.24.54-.53,1.04-.87,1.51-.18.24-.34.5-.48.78-.14.28-.17.64-.33.9l.1.02c-.17-.3-.08-.7-.13-1.05-.07-.46-.06-.93-.07-1.4,0-.18,0-.36.02-.54.02-.18.06-.35.1-.52.12-.45.22-.92.39-1.35.14-.36.27-.72.42-1.07.22-.52.42-1.03.68-1.52.1-.2.21-.39.33-.57.06-.1.15-.23.25-.27.03-.01.01,0,0-.01l-.03-.04c-.08.49-.28.95-.44,1.41-.08.23-.16.46-.23.69-.07.25-.13.5-.19.75-.11.51-.21,1.03-.38,1.52-.1.27-.2.53-.3.8l-.3.84c-.23.63-.43,1.27-.63,1.91,0,.03.09.06.11.03.19-.57.35-1.15.56-1.71.2-.55.39-1.1.6-1.64.19-.49.31-1,.41-1.51.05-.26.11-.51.18-.77.06-.24.14-.47.22-.71.17-.52.41-1.02.5-1.57,0-.02-.02-.03-.03-.04-.1-.05-.18.01-.25.1-.12.14-.22.3-.31.47-.28.47-.49.99-.71,1.5-.18.42-.35.84-.5,1.26-.05.12-.09.24-.13.36-.07.22-.13.45-.19.68-.1.38-.21.76-.22,1.16,0,.22,0,.43,0,.65,0,.24,0,.47.02.7.02.22.06.42.07.64,0,.18,0,.36.03.54.02.09.04.17.09.25.01.02.08.05.1.02.15-.23.18-.53.28-.78.11-.27.27-.52.42-.75.16-.23.33-.46.48-.7.15-.24.28-.49.4-.74.25-.55.49-1.13.72-1.7.12-.29.24-.58.37-.87.11-.25.22-.5.35-.74.23-.48.55-.94.68-1.47,0-.02-.03-.04-.04-.04-.22-.1-.41.06-.57.27-.16.22-.3.48-.46.7-.14.19-.29.38-.44.58-.14.19-.26.4-.37.61-.24.43-.4.9-.59,1.36-.18.47-.35.95-.5,1.43-.16.44-.32.88-.47,1.32-.13.43-.25.88-.31,1.34-.07.48-.06.96,0,1.44.06.46.14.93.1,1.4-.01.21-.02.41.04.61.05.16.13.29.17.45.02.09.02.17,0,.25,0,.03.1.06.11.02Z"/>
              <path class="cls-1" d="M3.94,48.89c-.18-.73-.31-1.46-.53-2.16-.06-.18-.11-.35-.17-.52-.05-.16-.08-.33-.11-.51-.06-.36-.08-.73-.12-1.1-.02-.18-.05-.36-.06-.54,0-.18,0-.37,0-.55.03-.37.08-.74.12-1.11.06-.41.11-.82.14-1.23.03-.33.04-.65.08-.98.03-.26.06-.56,0-.79-.04-.16-.16-.28-.3-.22-.13.06-.24.24-.32.4-.11.22-.2.46-.27.7-.16.58-.21,1.16-.26,1.74-.03.42-.04.84-.04,1.26,0,.39.02.76.11,1.11.15.66.41,1.22.61,1.83.09.27.18.54.28.8.1.25.21.51.37.7.06.08.13.14.21.19.01,0,.03,0,.03-.02.04-.3,0-.59-.05-.88-.03-.15-.05-.3-.07-.45-.02-.16-.02-.33-.02-.5,0-.33.01-.66-.03-.98-.05-.33-.13-.66-.2-.97-.08-.36-.16-.72-.22-1.09,0-.05-.08-.12-.07-.02.1.66.27,1.27.39,1.92.03.16.05.32.06.48,0,.17,0,.33,0,.5-.01.32,0,.62.06.92.06.32.12.65.07.99l.03-.02c-.17-.1-.29-.31-.39-.52-.12-.24-.21-.51-.3-.77-.09-.25-.17-.5-.26-.74-.11-.3-.23-.6-.33-.92-.1-.32-.18-.65-.2-1-.03-.39-.02-.79,0-1.19,0-.41.05-.83.1-1.25.03-.23.05-.45.1-.68.05-.23.11-.46.2-.68.08-.2.17-.41.29-.57.1-.13.22-.18.31-.09.06.05.06.17.06.27,0,.13,0,.27-.02.41-.02.29-.05.58-.07.88-.03.4-.08.81-.13,1.21-.08.71-.21,1.43-.15,2.11.09.68.1,1.4.29,2.02.11.34.22.68.31,1.03.09.34.17.69.24,1.04l.13.53s.02.07.05.08c.02,0,.04,0,.03-.03Z"/>
              <path class="cls-1" d="M4.67,45.18c.21-.46.48-.88.75-1.3.27-.41.54-.82.82-1.21.14-.2.28-.4.41-.61.13-.21.26-.43.4-.63.27-.39.59-.72.86-1.09.33-.41.57-.9.89-1.31h-.04c.1.09.17.2.19.36.02.16-.02.34-.08.5-.14.43-.38.84-.6,1.24-.2.36-.43.69-.64,1.04-.13.21-.26.41-.44.58-.28.28-.62.48-.93.67-.31.19-.62.36-.91.61-.25.22-.47.51-.63.84-.05.1-.09.2-.14.3l.05.09c.1-.39.21-.78.35-1.17.13-.38.28-.76.43-1.13.17-.37.35-.72.54-1.07.17-.31.35-.67.65-.78.12-.04.23-.03.35-.06.12-.03.22-.09.31-.22.03-.04.02-.17-.03-.1-.16.25-.4.18-.6.24-.28.09-.48.41-.64.71-.39.69-.74,1.43-1.01,2.2-.15.43-.3.86-.4,1.31,0,.03-.01.07,0,.09.01.02.03.02.04,0,.16-.37.35-.73.62-1,.28-.28.6-.47.91-.65.32-.19.65-.39.95-.66.21-.19.37-.41.52-.65.21-.35.44-.69.64-1.05.12-.2.23-.42.34-.63.11-.21.21-.43.29-.65.11-.33.18-.75-.02-.98-.02-.03-.05-.05-.08-.07-.01,0-.03,0-.04.01-.29.36-.49.79-.78,1.16-.29.37-.59.71-.87,1.08-.14.2-.28.41-.41.62-.13.21-.27.41-.41.62-.28.4-.57.8-.84,1.21-.3.46-.61.94-.85,1.45-.02.05,0,.18.04.1Z"/>
              <path class="cls-1" d="M8.18,41.46c.21-.09.4-.28.58-.44.18-.17.38-.34.61-.36l-.03-.03c.07.33-.17.75-.37,1-.26.33-.6.65-.95.77-.16.05-.33.05-.46-.06-.05-.04-.08.09-.04.12.28.24.68.03.96-.2.34-.27.68-.65.85-1.08.08-.2.13-.43.08-.63,0-.01-.01-.03-.03-.03-.47.05-.79.61-1.22.81-.05.02-.04.15.01.13Z"/>
              <path class="cls-1" d="M6.09,39.41c.16-.59.38-1.16.65-1.71l.4-.83c.14-.27.28-.55.41-.83.12-.29.25-.59.4-.88.16-.29.29-.59.5-.86.25-.33.49-.63.8-.89.17-.15.35-.29.54-.4.11-.06.27-.15.35-.08v-.07c-.02.08-.1.19-.15.25-.06.08-.13.15-.2.23-.15.17-.28.37-.43.54-.16.2-.35.37-.53.56-.2.2-.36.44-.51.68-.16.25-.32.51-.47.77-.16.27-.33.53-.5.79-.35.52-.69,1.06-.96,1.64l-.19.47-.16.35c-.1.23-.22.48-.35.68h.02c-.07-.08-.11-.23-.13-.36-.03-.17-.04-.34-.05-.51-.02-.36,0-.72.04-1.1.12-.78.3-1.61.7-2.37.16-.34.42-.76.72-.95l-.03-.1c0,.39-.22.76-.35,1.14-.16.46-.27.92-.36,1.38-.05.22-.1.45-.18.67-.06.19-.14.37-.19.56-.05.18-.09.37-.11.56-.02.18-.01.36-.02.54-.01.38,0,.81.11,1.13,0,.01.03.07.04.06.02,0,0-.04,0-.05-.05-.14-.07-.31-.08-.47-.02-.18-.02-.37-.01-.55,0-.18,0-.37.02-.55.02-.19.06-.37.11-.55.05-.18.12-.36.18-.54.07-.22.13-.44.18-.66.09-.46.18-.92.35-1.37.08-.2.16-.4.23-.6.08-.21.13-.41.13-.62,0-.02,0-.12-.03-.1-.27.18-.53.55-.69.86-.18.33-.33.69-.45,1.04-.12.44-.23.89-.3,1.32-.07.44-.08.87-.06,1.29.01.2.03.41.07.59.03.15.09.31.18.42,0,0,.01.01.02,0,.12-.18.21-.4.31-.6.11-.25.22-.49.32-.74.12-.32.29-.62.46-.91.18-.29.34-.58.54-.87.18-.26.35-.52.51-.8.15-.27.32-.53.49-.8.17-.26.34-.53.57-.74.18-.18.35-.35.51-.55l.24-.32c.06-.09.13-.16.2-.24.14-.15.27-.32.27-.5,0-.12-.15-.09-.25-.05-.15.06-.3.17-.45.28-.14.11-.29.23-.43.36-.13.13-.25.27-.37.41-.43.49-.71,1.07-.98,1.64-.13.29-.25.57-.39.85-.13.28-.29.55-.41.83-.27.55-.55,1.1-.72,1.68-.05.14-.09.29-.13.43,0,.03.01.06.02.08,0,0,.03.05.03.03Z"/>
              <path class="cls-1" d="M6.17,40.01c.09-.17.24-.3.36-.42.21-.21.42-.42.62-.63.21-.23.44-.45.65-.7.17-.2.34-.42.44-.67.1-.24.1-.48-.03-.64,0,0-.02,0-.03,0-.23.19-.39.44-.57.68-.19.23-.4.43-.61.62-.39.35-.76.72-1.08,1.18-.33.47-.5,1.02-.65,1.58-.11.44-.16.88-.26,1.31-.05.22-.12.43-.19.65-.05.14-.12.35-.23.42l.03.02c-.04-.09-.02-.21-.01-.32.01-.12,0-.23,0-.35,0-.27,0-.53-.01-.8,0-.24.02-.48,0-.71-.01-.22-.02-.44-.01-.66,0-.25.04-.51.13-.76h-.06c.15.36.09.85.09,1.27.01.52.06,1.04.09,1.55,0,.09.07.06.07-.03l-.05-.83c-.01-.25-.04-.5-.04-.76,0-.43.05-.92-.1-1.29-.01-.03-.04-.04-.06,0-.16.47-.15.95-.14,1.4.01.25,0,.49,0,.74,0,.29,0,.58,0,.87,0,.14,0,.27-.01.4,0,.13,0,.26.04.37,0,.01.02.03.03.02.1-.05.17-.2.22-.32.07-.18.12-.37.18-.56.11-.39.17-.78.25-1.17.11-.58.28-1.18.56-1.7.29-.49.67-.89,1.04-1.25.23-.21.47-.41.68-.65.23-.26.4-.58.66-.79h-.03c.1.12.1.27.02.45-.09.24-.26.44-.42.63-.4.45-.81.85-1.23,1.27-.09.09-.17.18-.26.27-.06.06-.11.12-.15.2-.02.03-.02.07,0,.1,0,.02.03.04.05.01Z"/>
              <path class="cls-1" d="M6.81,37.58s.03.06.05.05c.02-.01,0-.05,0-.06,0-.01-.03-.06-.05-.05-.02.01,0,.05,0,.06Z"/>
              <path class="cls-1" d="M6.87,37.63c.35-.48.77-.91,1.14-1.38.17-.23.35-.46.52-.7.14-.21.22-.42.3-.66.09-.24.19-.49.38-.69.03-.03.02-.06.02-.08l-.03-.12c-.02-.07-.09-.02-.07.05l.03.12.02-.08c-.17.17-.27.38-.36.6-.09.21-.14.44-.26.64-.14.25-.34.48-.51.71-.18.24-.38.47-.58.7-.23.25-.43.51-.64.78-.04.05.02.15.06.1Z"/>
              <path class="cls-1" d="M8.7,33.48c.1-.34.25-.68.38-1.03.05-.13.09-.26.16-.38l.2-.32c.12-.19.28-.41.34-.61,0-.02.02-.06.01-.08-.01-.02-.07-.01-.1-.01-.06,0-.13.03-.2.07-.16.09-.32.24-.45.39-.08.09-.16.19-.24.29-.06.1-.13.2-.19.3-.12.2-.22.4-.33.6-.1.18-.18.37-.23.55-.09.31-.08.62-.22.93-.11.29-.25.57-.29.87,0,.03.02-.02.03-.02.02-.03.03-.07.03-.1.03-.26.16-.51.26-.76.11-.25.15-.48.19-.73.02-.13.05-.27.1-.4.02-.07.06-.14.1-.21.09-.17.17-.34.27-.51.11-.19.21-.38.35-.56.13-.16.28-.32.44-.43.07-.05.14-.08.2-.1.05-.01.16-.03.16.03,0,.07-.07.17-.11.25-.06.11-.13.21-.2.31-.07.11-.14.22-.21.33-.06.13-.11.25-.16.38-.13.37-.29.72-.38,1.08,0,.03,0,.02.02,0,.02-.02.04-.07.05-.1Z"/>
              <path class="cls-1" d="M7.29,35.95s.09-.11.07-.14c0,0-.09.11-.07.14Z"/>
              <path class="cls-1" d="M5.78,49.07c.08-.21.16-.42.28-.6.12-.19.26-.32.41-.46.26-.26.5-.63.83-.71.04,0,.05-.15,0-.14-.35.08-.59.46-.86.73-.15.15-.29.28-.41.47-.12.19-.21.41-.29.63-.01.03-.02.08,0,.1.02.02.03,0,.04-.02Z"/>
              <path class="cls-1" d="M7.89,47.68c.5-.22,1-.44,1.5-.66l-.03-.09c0,.17-.13.33-.22.44-.13.16-.29.3-.44.42-.12.1-.25.19-.38.28-.19.13-.39.18-.6.2-.23.02-.46.02-.69.11-.02,0,0,.14.02.13.42-.17.87-.03,1.27-.31.29-.2.59-.42.83-.71.11-.14.24-.32.24-.52,0-.01,0-.1-.03-.09-.5.22-1.01.44-1.5.65-.02,0,0,.14.02.13Z"/>
              <path class="cls-1" d="M5.28,56.98c-.11,0-.19-.13-.26-.24-.08-.13-.14-.28-.2-.42-.07-.16-.17-.3-.25-.46-.1-.2-.19-.41-.27-.63-.15-.38-.28-.78-.39-1.18-.11-.35-.24-.67-.41-.96-.07-.12-.14-.23-.2-.37-.06-.14-.11-.29-.15-.45-.04-.16-.07-.34-.08-.51,0-.07,0-.14.01-.21,0-.03.02-.07.03-.1.02-.04.04-.04.07-.03.11.03.19.16.25.27.07.14.13.29.19.44.06.16.15.31.24.46.1.18.21.37.3.57.18.39.32.82.44,1.24.06.2.11.39.14.6.03.19.04.38.09.56.02.09.05.19.09.27,0,.01.01-.05.01-.05,0-.02,0-.07,0-.09-.16-.36-.14-.8-.25-1.19-.05-.23-.12-.45-.19-.67-.07-.22-.15-.43-.23-.64-.09-.21-.19-.41-.3-.61-.1-.17-.2-.34-.28-.52-.06-.14-.12-.3-.18-.44-.06-.13-.13-.28-.24-.34-.02-.01-.04-.02-.07-.02-.03,0-.04,0-.06.04-.03.06-.04.12-.06.19-.03.16-.03.32-.02.48.02.34.13.68.26.97.07.15.16.27.23.41.09.16.17.32.23.5.13.37.23.76.37,1.13.16.45.33.89.55,1.28.08.13.14.27.21.41.07.14.14.29.24.39.04.04.08.07.13.07.01,0,.01-.14,0-.14Z"/>
              <path class="cls-1" d="M5.73,60.17c.16-.56.02-1.15-.02-1.72-.05-.63-.05-1.28.02-1.91.08-.63.22-1.24.43-1.81.11-.3.25-.58.39-.86.12-.24.24-.49.38-.7.12-.19.26-.36.41-.5.08-.08.16-.15.25-.2.07-.04.14-.08.21-.07l-.05-.03c-.02.29-.16.54-.31.74-.17.23-.36.42-.54.64-.19.22-.34.49-.48.77-.15.32-.27.66-.38,1.02-.09.3-.19.6-.29.9-.13.43-.24.86-.34,1.3-.04.19-.08.39-.1.59,0,.09-.02.25.04.31.03.02.08.02.1-.02.13-.24.16-.54.22-.82.03-.14.07-.28.14-.41.07-.14.15-.26.22-.38.14-.23.25-.46.32-.74.06-.23.09-.48.11-.72.02-.29.03-.59.08-.88,0-.04-.1-.05-.11,0-.08.5-.05,1.03-.17,1.52-.06.26-.16.5-.29.72-.14.25-.31.48-.39.78-.08.31-.09.65-.24.92l.1-.02s-.03-.19-.03-.26c.01-.17.05-.34.08-.51.09-.44.21-.86.33-1.28.1-.31.21-.62.3-.93.09-.31.19-.62.32-.91.13-.3.3-.6.49-.85.19-.24.39-.44.57-.68.17-.22.32-.49.35-.8,0-.03-.04-.03-.05-.03-.15-.01-.3.08-.43.18-.16.12-.3.28-.43.45-.13.17-.23.35-.33.55-.15.28-.29.56-.43.86-.25.57-.42,1.17-.53,1.81-.11.64-.12,1.31-.09,1.97.02.33.07.68.1,1.02.04.34.04.68-.05,1-.01.04.09.05.11,0Z"/>
              <path class="cls-1" d="M3.55,51.07c-.1-.34-.31-.59-.47-.88-.18-.32-.31-.69-.47-1.04-.14-.32-.31-.6-.48-.9-.16-.29-.3-.59-.48-.85-.19-.28-.42-.52-.71-.59-.03,0-.05,0-.07.05-.06.19-.01.38.05.53.08.2.18.36.3.52.11.15.24.29.35.44.15.19.28.43.4.66.16.3.31.62.52.86.19.22.43.31.66.43.15.08.31.17.43.32.1.12.19.24.28.37.11.16.21.32.29.5.03.06.06.13.06.21,0,.05,0,.09-.03.11h.07c-.17-.16-.19-.42-.21-.69,0-.13-.02-.26-.05-.38-.04-.16-.1-.3-.17-.43-.14-.27-.32-.5-.45-.79-.11-.24-.2-.51-.24-.8-.02-.17-.02-.33.03-.5.06-.19.14-.37.19-.56l-.08.04c.25.12.24.58.26.9,0,.18.02.35.04.53.04.26.08.51.13.76.05.28.11.57.17.85.01.07.12.07.11-.01-.11-.53-.21-1.05-.29-1.59-.05-.37-.03-.77-.1-1.13-.04-.19-.12-.35-.26-.42-.03-.01-.07,0-.08.04-.05.18-.12.35-.18.53-.04.15-.06.3-.05.45.02.3.11.59.22.85.12.29.29.52.43.78.08.14.16.29.21.46.04.13.05.27.06.4.01.15.02.29.05.43.04.15.1.26.2.35.02.02.05.02.07,0,.22-.16-.07-.62-.15-.75-.09-.16-.2-.3-.3-.44-.07-.09-.14-.19-.22-.26-.21-.2-.46-.28-.69-.41-.12-.07-.23-.14-.33-.26-.1-.12-.19-.27-.27-.42-.17-.3-.32-.63-.51-.91-.09-.15-.21-.27-.31-.4-.14-.17-.27-.35-.38-.56-.08-.16-.17-.37-.1-.59l-.07.05c.52.13.82.81,1.11,1.34.16.29.33.56.47.87.15.34.28.69.45,1.01.17.32.41.58.52.96.02.07.12.04.1-.04Z"/>
              <path class="cls-1" d="M3.79,48.18c.19-.44.33-.92.57-1.31.05-.09.12-.17.17-.26l.18-.28c.11-.18.23-.36.38-.48.06-.05.28-.2.31-.07.04.18-.06.41-.15.56-.1.18-.21.33-.33.48-.05.07-.11.14-.15.23-.06.1-.1.21-.16.31-.13.21-.29.36-.41.58-.12.23-.2.49-.29.74-.01.04.08.11.09.08.09-.23.16-.48.27-.71.11-.22.26-.36.39-.55.07-.11.12-.23.18-.35.05-.09.1-.17.16-.24.13-.16.24-.32.35-.52.08-.16.17-.38.12-.56-.03-.13-.14-.2-.25-.19-.16.03-.3.18-.41.33-.14.19-.27.4-.39.6-.07.11-.14.2-.2.32-.07.13-.13.26-.19.39-.11.28-.22.55-.33.83-.02.04.07.11.08.08Z"/>
              <path class="cls-1" d="M7.46,34.86c.04.2-.03.46-.07.68-.03.22-.04.45.07.59.01.02.04.04.07.02.02-.02.02-.06,0-.07-.1-.13-.07-.38-.03-.58.04-.21.1-.45.06-.64,0-.03-.02-.06-.05-.06-.02,0-.05.02-.04.05Z"/>
              <path class="cls-1" d="M5.56,61.62s.01-.03,0-.04c-.01-.03-.03-.06-.05-.07-.02-.02-.01.03,0,.04.01.03.03.06.05.07Z"/>
              <path class="cls-1" d="M5.67,61.98c.13-.37-.16-.77-.34-1.02-.24-.32-.53-.59-.8-.87-.22-.22-.44-.44-.67-.64-.28-.24-.56-.48-.84-.71-.27-.23-.54-.47-.79-.76-.24-.28-.47-.59-.72-.88-.21-.25-.44-.48-.68-.67-.23-.17-.48-.32-.74-.3,0,0-.02,0-.02.02-.12.36.17.7.35.89.24.25.5.44.76.63.22.16.45.3.65.49.24.22.42.55.6.83.09.14.19.28.3.4.11.11.22.2.34.29.24.16.49.28.71.47.27.22.47.55.72.79.11.1.23.18.34.27.12.1.21.22.27.38.02.04.08.07.1.03.06-.14.03-.34,0-.5-.05-.24-.13-.48-.21-.7-.16-.43-.35-.83-.56-1.24-.15-.32-.4-.51-.63-.7-.22-.18-.44-.37-.62-.64-.2-.31-.36-.69-.5-1.06-.14-.38-.24-.77-.35-1.17-.1-.39-.2-.78-.29-1.18-.04-.19-.07-.39-.09-.59-.02-.15-.03-.31,0-.46.02-.08.05-.18.12-.18.04,0,.07.03.1.06.06.06.11.13.15.21.16.3.22.69.32,1.04.11.39.26.76.39,1.14.13.37.22.76.34,1.14.12.37.23.74.37,1.1.07.18.14.36.22.53.07.16.16.3.22.47.24.59.29,1.27.44,1.89.09.34.22.64.39.94.09.16.18.32.26.5.08.18.15.36.24.54.08.17.17.33.23.51.02.05.12.07.1,0-.07-.19-.15-.36-.24-.53-.09-.18-.16-.37-.24-.55-.15-.34-.37-.64-.51-.99-.23-.61-.26-1.3-.45-1.94-.05-.16-.1-.31-.16-.45-.08-.17-.16-.33-.24-.5-.15-.35-.28-.72-.4-1.1-.12-.38-.24-.77-.34-1.15-.12-.41-.27-.81-.41-1.22-.12-.35-.19-.73-.31-1.08-.05-.16-.12-.31-.21-.44-.07-.1-.16-.2-.27-.22-.18-.04-.23.25-.23.44,0,.19.03.37.06.55.03.21.08.41.13.62.2.81.37,1.64.69,2.38.14.34.31.69.52.96.2.25.44.42.66.61.13.11.25.22.35.37.06.09.11.19.16.29.1.21.2.42.29.63.11.24.21.49.29.75.07.2.13.43.13.65,0,.08,0,.15-.04.22l.1.03c-.11-.28-.28-.42-.48-.57-.24-.18-.42-.44-.63-.68-.21-.24-.44-.4-.69-.55-.24-.15-.49-.29-.7-.54-.21-.25-.37-.57-.57-.84-.1-.14-.2-.26-.32-.36-.12-.1-.25-.19-.37-.28-.27-.19-.55-.39-.81-.62-.14-.13-.29-.27-.4-.46-.09-.14-.14-.31-.08-.49l-.02.02c.23-.01.45.12.65.27.2.15.4.34.57.54.24.28.46.58.7.86.23.28.48.52.73.74.52.46,1.09.89,1.59,1.41.25.26.51.5.74.77.14.17.28.35.37.56.08.17.13.36.06.54-.02.05.09.1.1.05Z"/>
              <path class="cls-1" d="M5.36,61.3c-.1-.99-.49-1.92-.86-2.79-.09-.2-.15-.4-.21-.61-.05-.21-.09-.43-.15-.64-.06-.2-.12-.4-.22-.58-.06-.1-.12-.19-.19-.26-.08-.09-.17-.17-.21-.3-.04-.13-.05-.27-.1-.39-.05-.12-.12-.22-.2-.28-.16-.13-.36-.16-.51-.32l.02.09.02-.15c.01-.09-.08-.14-.09-.05l-.02.15s0,.07.02.09c.13.14.29.18.44.27.08.05.15.11.2.21.06.1.08.21.1.33.03.12.07.23.14.32.07.09.16.16.23.26.12.16.2.35.26.56.12.4.17.83.32,1.22.08.21.18.41.26.62.09.22.18.44.26.66.19.51.33,1.05.4,1.61,0,.09.11.09.1,0Z"/>
              <path class="cls-1" d="M2.09,55.06c-.13-.07-.27-.12-.4-.19-.13-.08-.25-.19-.35-.33-.11-.14-.2-.3-.31-.44-.06-.08-.12-.14-.17-.22-.11-.16-.22-.33-.34-.49-.09-.11-.22-.28-.35-.27-.12.01-.17.2-.16.35,0,.21.07.4.14.57.16.39.4.74.64,1.03.21.25.46.44.71.6.3.19.61.34.91.49.02.01.02-.13,0-.15-.52-.26-1.05-.51-1.5-.96-.24-.24-.46-.57-.63-.9-.09-.17-.17-.35-.22-.55-.01-.06-.02-.12,0-.18.02-.06.06-.12.11-.14.12-.04.25.12.34.23.12.15.22.31.33.47.05.07.1.14.15.2.12.14.22.3.33.45.11.15.22.28.36.37.14.09.29.14.44.21.02.01.02-.13,0-.15Z"/>
              <path class="cls-1" d="M6.23,66.05c.08-.62-.03-1.27-.04-1.91,0-.37.05-.71.12-1.07l.19-1.13c.06-.34.09-.69.16-1.03.06-.3.14-.58.25-.85.13-.33.26-.67.41-.98.09-.18.2-.37.34-.5.1-.1.22-.17.34-.1l-.03-.07c-.04.7-.28,1.3-.58,1.87-.15.29-.31.58-.46.88-.09.16-.16.33-.23.49-.07.15-.13.3-.21.44-.16.28-.36.55-.4.91-.01.08.08.12.09.03.04-.33.23-.58.37-.83.08-.14.14-.29.21-.44l.24-.5c.3-.58.64-1.13.85-1.76.12-.34.19-.71.21-1.09,0-.03-.01-.05-.03-.07-.26-.14-.51.2-.66.43-.21.33-.34.7-.49,1.06-.08.21-.16.41-.22.63-.08.33-.15.69-.2,1.03-.05.38-.12.75-.18,1.13l-.09.57c-.03.19-.06.38-.08.57-.03.36,0,.74.03,1.11.01.19.02.37.02.56,0,.18,0,.37-.02.55-.01.08.08.15.09.06Z"/>
              <path class="cls-1" d="M5.12,56.21c.04-.14.06-.29.1-.43.03-.12.07-.25.14-.34.15-.16.34-.26.51-.38,0,0-.04-.01-.04-.01-.02,0-.05,0-.07,0-.17.12-.36.22-.52.39-.07.08-.11.21-.14.33-.04.14-.06.29-.1.44,0,0,.1.02.11,0Z"/>
              <path class="cls-1" d="M6.7,55.33c.16.08.35.03.49-.06.18-.11.33-.28.49-.44.19-.19.41-.34.63-.48.23-.15.46-.29.7-.39.1-.04.2-.07.3-.09.08-.01.16.02.2.12.06.19-.14.37-.25.47-.19.17-.38.32-.58.47-.27.2-.54.4-.81.59-.25.18-.49.4-.78.47-.24.06-.5-.03-.72-.14-.02,0-.05,0-.07,0,0,0-.04.01-.04.01.22.1.44.17.67.16.21,0,.42-.07.61-.2.14-.09.27-.19.4-.29l.42-.3c.28-.2.55-.41.82-.63.14-.11.31-.23.4-.41.04-.07.06-.16.02-.24-.04-.09-.12-.1-.2-.11-.2,0-.4.06-.59.15-.27.12-.53.3-.79.47-.13.09-.26.18-.37.29l-.26.26c-.09.09-.19.18-.3.25-.1.06-.19.11-.29.06-.02-.01-.05,0-.07,0,0,0-.04.01-.04.01Z"/>
              <path class="cls-1" d="M6.19,63.02c.03-.18.08-.35.17-.48.08-.12.18-.21.28-.29.27-.21.54-.41.8-.64.27-.24.52-.51.76-.82.25-.32.48-.65.73-.96.09-.11.17-.23.26-.34.09-.11.21-.23.34-.24l-.05-.02c.09.1.08.25.06.38-.03.19-.1.37-.17.53-.14.32-.3.64-.5.92-.15.22-.36.37-.56.52-.11.08-.22.17-.33.26-.09.08-.17.17-.25.25-.31.28-.69.42-1.03.63-.36.23-.75.56-.74,1.14,0,.03.11.03.11-.01,0-.41.21-.71.47-.92.27-.23.59-.36.88-.53.13-.08.26-.16.38-.26.06-.06.12-.12.18-.18.08-.08.17-.16.26-.23.29-.22.59-.42.8-.76.16-.25.31-.52.43-.8.06-.14.12-.29.15-.44.03-.11.05-.24.03-.36,0-.05-.03-.09-.05-.13-.05-.06-.12-.04-.18-.02-.16.05-.28.18-.39.32-.3.38-.59.77-.89,1.16-.16.22-.34.43-.52.61-.19.19-.38.36-.59.52-.18.14-.35.27-.53.41-.14.11-.26.24-.34.43-.04.11-.07.23-.09.35,0,.02.1.03.11,0Z"/>
              <path class="cls-1" d="M6.52,67.88c.02-.14-.09-.32-.16-.43-.11-.18-.23-.35-.35-.52-.28-.37-.59-.71-.91-1.04-.24-.25-.46-.49-.69-.74-.21-.23-.44-.45-.63-.74-.3-.47-.42-1.06-.6-1.59-.17-.49-.45-.99-.45-1.54,0-.06,0-.12.01-.18,0-.05.02-.17.05-.2.05-.04.11.04.14.09.11.17.15.4.22.6.03.07.06.15.1.21.09.14.2.23.31.35.11.12.22.27.26.45.03.12.04.26.06.38.06.3.16.56.31.79.16.25.34.48.47.76.25.54.43,1.15.81,1.58.09.11.19.2.3.29.09.07.19.14.27.24.18.21.24.5.38.75.06.11.13.21.22.3,0,0,0,.01,0,0-.02-.31-.19-.6-.33-.86-.18-.34-.29-.72-.43-1.09-.15-.38-.3-.75-.55-1.05-.12-.14-.24-.27-.37-.4-.13-.13-.27-.25-.37-.42-.18-.28-.3-.7-.61-.72,0,0,.02.13.05.13.3.02.42.44.6.71.1.15.23.27.35.39.14.14.28.29.41.45.27.34.41.77.58,1.21.07.19.13.39.22.57.07.16.16.3.23.45.04.07.07.15.1.23.01.04.03.08.04.12,0,.03.03.1.02.13,0,.02,0,0-.03,0-.02-.02-.03-.04-.05-.06-.03-.04-.06-.08-.08-.12-.04-.07-.07-.15-.1-.23-.06-.16-.13-.32-.22-.46-.09-.14-.2-.24-.32-.34-.14-.11-.28-.23-.4-.38-.12-.15-.22-.32-.31-.5-.17-.35-.3-.73-.47-1.08-.17-.35-.44-.62-.59-.98-.08-.18-.1-.37-.13-.56-.02-.17-.07-.34-.15-.49-.09-.19-.22-.32-.35-.46-.06-.07-.13-.14-.18-.22-.02-.04-.04-.09-.06-.14-.05-.14-.09-.27-.13-.41-.04-.11-.09-.23-.16-.31-.02-.03-.05-.05-.08-.05-.02,0-.03,0-.04.03-.01.04-.02.08-.03.12-.03.16-.03.33,0,.49.04.35.17.67.29.99.06.15.12.31.18.46.06.18.12.37.17.55.1.34.22.68.39.99.2.37.48.63.73.91.31.33.62.66.94.99.17.19.34.38.51.58.17.2.34.42.48.67.04.07.07.15.06.23,0,.02.03.06.04.08,0,0,.03.05.03.04Z"/>
              <path class="cls-1" d="M3.37,63.87c-.61-.22-1.16-.7-1.68-1.22-.22-.22-.44-.45-.65-.69-.2-.23-.38-.47-.53-.76-.17-.33-.28-.72-.32-1.12h-.1c.41.85,1.01,1.4,1.62,1.94.3.27.59.56.88.85.15.15.3.31.44.48.13.16.22.35.33.54.23.39.53.79.89.91.02,0,.06,0,.06-.03,0-.03-.03-.05-.05-.06-.16-.05-.3-.19-.42-.33-.13-.15-.25-.32-.36-.5-.11-.17-.19-.35-.31-.51-.13-.18-.27-.33-.42-.48-.28-.28-.56-.56-.85-.83-.3-.27-.6-.53-.88-.83-.31-.33-.61-.71-.83-1.18-.02-.04-.11-.08-.1,0,.07.77.39,1.37.81,1.87.21.25.44.48.66.71.27.27.54.53.83.76.31.24.64.45.99.57.02,0,.06,0,.06-.03,0-.03-.03-.05-.05-.06Z"/>
              <path class="cls-1" d="M7.54,71.23c-.03-.36-.06-.72-.06-1.09,0-.33-.04-.65-.08-.98-.05-.32-.07-.64-.06-.96v-.26c0-.33,0-.65.02-.98.03-.36.07-.71.15-1.04.05-.19.15-.54.37-.44l-.05-.08c.04.28,0,.56-.03.84-.04.29-.08.58-.09.87l-.04,1.04-.02.54c0,.18,0,.36,0,.54,0,.16-.04.3-.08.45-.04.15-.06.29-.05.45,0,.03.07.13.09.07.06-.2.2-.31.31-.46.12-.16.19-.37.26-.57.14-.39.39-.69.53-1.1.14-.45.19-.94.34-1.38.06-.17.14-.32.21-.49.05-.13.11-.27.19-.37.07-.09.16-.12.27-.09.07.02.11.06.12.13.02.09,0,.18-.02.27-.03.11-.06.21-.1.32-.07.17-.14.32-.22.48-.18.38-.33.78-.53,1.15-.18.33-.34.69-.59.94-.13.13-.28.22-.42.33-.14.11-.28.23-.4.37-.06.07-.12.15-.17.23-.03.04.05.15.08.1.23-.36.55-.56.85-.8.28-.22.45-.57.63-.91.21-.4.39-.81.57-1.21.08-.18.17-.35.24-.53.08-.19.17-.41.16-.64,0-.22-.15-.37-.34-.37-.11,0-.2.1-.26.2-.07.12-.13.26-.18.4-.08.19-.17.36-.23.56-.07.23-.11.47-.17.72-.05.24-.11.49-.2.71-.08.19-.2.36-.3.54-.1.19-.17.4-.25.61-.04.11-.09.21-.16.3-.06.07-.12.14-.18.22-.06.07-.1.15-.13.25l.09.07c-.03-.3.1-.53.13-.81.01-.17,0-.35,0-.52,0-.18.01-.36.02-.54l.04-1.06c0-.3.05-.61.09-.91.04-.3.08-.61.03-.92,0-.03-.03-.06-.05-.08-.2-.09-.32.13-.38.32-.11.31-.15.67-.18,1.01-.04.35-.04.71-.04,1.06,0,.36,0,.72.02,1.09.04.37.11.73.11,1.1v.63s.06.62.06.62c0,.06.1.13.09.05Z"/>
              <path class="cls-1" d="M7.73,70.62c.35.08.63-.09.85-.35.11-.13.23-.29.32-.45.11-.2.17-.44.2-.68.03-.28.01-.56.02-.85,0-.07-.1-.12-.1-.04-.02.47.03.96-.16,1.37-.08.17-.19.33-.3.47-.1.13-.2.24-.33.32-.15.09-.32.12-.5.08-.07-.02-.07.11,0,.12Z"/>
              <path class="cls-1" d="M7.09,69.14c.07.42.15.84.23,1.27.09.42.22.83.34,1.25.11.42.27.82.42,1.23.08.2.14.41.23.61l.26.6.25.6.28.59.27.59.29.58.29.59c.1.19.21.39.3.59.19.4.39.79.56,1.19.09.21.17.43.27.63.08.17.16.34.24.51.13.33.28.64.49.94.05.07.1.13.15.18.03.03.08.03.09,0,.05-.17-.02-.37-.11-.55-.1-.22-.26-.41-.4-.62l-.41-.57c-.21-.29-.38-.6-.58-.89-.19-.29-.37-.59-.56-.89-.16-.25-.3-.5-.41-.78-.12-.27-.23-.54-.33-.81l-.29-.82c-.12-.3-.23-.6-.35-.9-.12-.3-.27-.59-.44-.86-.04-.07-.13-.03-.08.05.6.97.85,2.09,1.3,3.13.11.26.22.52.36.77.16.28.34.55.51.83.34.52.66,1.07,1.04,1.57.15.21.31.42.44.64.11.19.24.43.18.62h.09c-.24-.26-.39-.6-.53-.9-.15-.37-.33-.72-.49-1.08-.16-.42-.36-.81-.56-1.21-.18-.39-.4-.76-.58-1.15-.39-.77-.76-1.54-1.11-2.33-.16-.4-.35-.79-.49-1.19-.15-.4-.3-.81-.44-1.21-.12-.41-.24-.82-.35-1.24-.11-.41-.18-.84-.25-1.26l-.05-.32c-.01-.08-.12-.09-.1,0Z"/>
            </g>
          </g>
        </g>
      </g>
    </g>
  </g>
</svg>